<?xml version="1.0" encoding="UTF-8" standalone="no"?>
<!-- Created with Inkscape (http://www.inkscape.org/) -->

<svg
   xmlns:dc="http://purl.org/dc/elements/1.1/"
   xmlns:cc="http://creativecommons.org/ns#"
   xmlns:rdf="http://www.w3.org/1999/02/22-rdf-syntax-ns#"
   xmlns:svg="http://www.w3.org/2000/svg"
   xmlns="http://www.w3.org/2000/svg"
   xmlns:sodipodi="http://sodipodi.sourceforge.net/DTD/sodipodi-0.dtd"
   xmlns:inkscape="http://www.inkscape.org/namespaces/inkscape"
   width="210mm"
   height="297mm"
   viewBox="0 0 210 297"
   version="1.1"
   id="svg8"
   inkscape:version="0.92.4 (5da689c313, 2019-01-14)"
   sodipodi:docname="tampering.svg">
  <defs
     id="defs2" />
  <sodipodi:namedview
     id="base"
     pagecolor="#ffffff"
     bordercolor="#666666"
     borderopacity="1.0"
     inkscape:pageopacity="0.0"
     inkscape:pageshadow="2"
     inkscape:zoom="0.7"
     inkscape:cx="-767.44829"
     inkscape:cy="613.08462"
     inkscape:document-units="mm"
     inkscape:current-layer="layer1"
     showgrid="false"
     inkscape:window-width="2880"
     inkscape:window-height="1526"
     inkscape:window-x="-11"
     inkscape:window-y="-11"
     inkscape:window-maximized="1" />
  <metadata
     id="metadata5">
    <rdf:RDF>
      <cc:Work
         rdf:about="">
        <dc:format>image/svg+xml</dc:format>
        <dc:type
           rdf:resource="http://purl.org/dc/dcmitype/StillImage" />
        <dc:title></dc:title>
      </cc:Work>
    </rdf:RDF>
  </metadata>
  <g
     inkscape:label="Layer 1"
     inkscape:groupmode="layer"
     id="layer1">
    <path
       style="fill:#ff0000;fill-opacity:1;stroke-width:0.10361341"
       d="m 63.511285,123.67226 c -3.977291,-1.19521 -6.677163,-6.14936 -5.594837,-10.26634 0.838548,-3.18978 3.042123,-5.44105 6.337297,-6.47448 0.578765,-0.18138 1.071403,-0.39079 1.094816,-0.46512 0.07555,-0.23951 4.026644,-17.999766 6.830119,-30.70145 0.594027,-2.691427 2.207856,-9.983823 3.586288,-16.205301 3.265119,-14.737073 3.769024,-17.082214 3.968238,-18.468383 0.18414,-1.281205 0.216884,-1.187795 -0.559091,-1.595125 -1.057903,-0.555307 -2.688911,-2.37578 -3.387857,-3.781379 -0.787102,-1.582795 -1.005862,-2.986708 -0.762097,-4.889665 0.186588,-1.45651 0.421551,-2.182203 1.064656,-3.288068 1.128255,-1.940189 3.254032,-3.54416 5.556018,-4.192262 0.648427,-0.182414 0.829365,-0.184386 2.148559,-0.02528 1.667852,0.201646 2.256455,0.41301 3.44133,1.236668 1.387973,0.964866 2.725701,2.818408 3.284309,4.550743 0.286819,0.889573 0.443881,2.039335 0.449411,3.293886 l 0.0029,0.644923 1.288523,0.573267 c 0.708685,0.315311 3.690972,1.665148 6.627288,2.999631 2.936323,1.334503 5.746993,2.606328 6.245953,2.826294 0.49895,0.219961 2.42963,1.096279 4.29037,1.947422 1.86076,0.8511 5.29305,2.409144 7.62733,3.462271 2.33426,1.053153 5.48326,2.481826 6.99781,3.174825 1.51452,0.693032 2.80642,1.266502 2.87086,1.274415 0.0645,0.0078 0.41404,-0.327796 0.77687,-0.746012 0.85944,-0.990672 2.59207,-2.366295 3.40948,-2.706995 0.35286,-0.146867 1.08359,-0.369599 1.62394,-0.494695 0.87464,-0.202869 1.10788,-0.212667 2.12552,-0.09348 1.33224,0.155686 2.00821,0.409099 3.13714,1.174338 0.93279,0.632258 1.37945,1.070154 2.12896,2.087169 0.69722,0.94603 1.2748,2.174553 1.57104,3.34159 0.20397,0.803093 0.20609,0.929767 0.0461,2.505035 -0.19826,1.950365 -0.35998,2.512808 -1.03939,3.614397 -1.17372,1.903208 -2.8906,3.313754 -5.01758,4.122302 -0.35461,0.134763 -0.6428,0.297432 -0.6404,0.36144 0.003,0.06384 0.29294,1.412956 0.64591,2.997663 0.61764,2.774569 1.46545,6.610642 2.60115,11.769171 0.29569,1.344274 0.98222,4.444183 1.52516,6.888786 0.987,4.444559 1.49691,6.754347 3.44582,15.609686 0.57153,2.596759 1.11059,5.021999 1.19799,5.389429 l 0.15893,0.66803 0.84701,0.43296 c 1.14436,0.58494 1.84831,1.11343 2.64823,1.9881 0.86314,0.94381 1.40573,1.91107 1.86061,3.31684 0.4757,1.47011 0.55758,2.26621 0.37736,3.66731 -0.29889,2.32195 -1.44217,4.32486 -3.31897,5.81374 -1.21836,0.96653 -2.55969,1.57781 -3.94963,1.79997 -0.89265,0.14261 -2.6276,-0.0721 -3.46933,-0.42921 -1.98371,-0.8421 -3.53985,-2.41693 -4.54809,-4.60271 -0.48447,-1.05024 -0.49259,-1.06031 -0.89779,-1.11008 -0.22488,-0.0276 -3.18285,-0.052 -6.57323,-0.0542 -3.39039,-0.002 -8.09221,-0.0163 -10.44848,-0.0313 -2.35627,-0.0151 -8.32306,-0.0394 -13.25953,-0.0541 -4.936486,-0.0147 -13.44509,-0.0429 -18.908035,-0.0626 -5.462953,-0.0198 -10.204207,-0.0319 -10.536109,-0.0271 l -0.603465,0.009 -0.466447,1.23973 c -0.519394,1.38042 -0.916506,2.10546 -1.617999,2.95403 -1.857933,2.24749 -4.345091,3.42673 -6.844451,3.24517 -0.494791,-0.0359 -1.123131,-0.13238 -1.396293,-0.21463 z m 2.975036,-3.25438 c 1.21556,-0.19041 2.379357,-0.8969 3.010683,-1.82747 1.24332,-1.83267 1.252903,-4.9161 0.02053,-6.6219 -0.780534,-1.08041 -1.797934,-1.56582 -3.57112,-1.70378 -1.416535,-0.11023 -2.059318,0.0549 -2.981482,0.76601 -1.213796,0.93601 -1.777234,1.98848 -1.996188,3.72876 -0.231011,1.83677 0.148248,3.1672 1.230759,4.31663 0.730285,0.77543 1.521202,1.14961 2.753893,1.30284 0.546175,0.0678 1.23598,0.0854 1.532913,0.0389 z m 13.402589,-7.555 c 6.306641,0.0912 13.020504,0.14865 22.22092,0.19014 3.54914,0.016 9.78662,0.0536 13.86109,0.0835 7.46059,0.0548 15.63884,0.0719 17.04511,0.0356 1.40217,-0.0362 1.27562,0.0314 1.52143,-0.81285 0.68698,-2.3594 2.1995,-4.35271 4.31402,-5.68534 0.24692,-0.15558 0.88549,-0.45053 1.41897,-0.65554 l 0.96997,-0.37268 -0.13426,-0.58325 c -0.0744,-0.32068 -0.39278,-1.75795 -0.70835,-3.19373 -0.31547,-1.43583 -0.92059,-4.16099 -1.34452,-6.05598 -0.42394,-1.894999 -1.12339,-5.045203 -1.55432,-7.000505 -1.22891,-5.575982 -2.44977,-11.080173 -3.46284,-15.611728 -0.51246,-2.292243 -1.07035,-4.79277 -1.23978,-5.556699 -0.16922,-0.763962 -0.51542,-2.297896 -0.76876,-3.40885 l -0.46074,-2.019871 -0.66626,-0.31162 c -1.55506,-0.727343 -3.0088,-2.064019 -3.85072,-3.540633 -0.84945,-1.489804 -1.22708,-2.942276 -1.30348,-5.013908 l -0.027,-0.732007 -0.91702,-0.432102 c -1.52344,-0.71789 -6.90165,-3.17882 -8.73308,-3.996061 -1.5644,-0.69807 -4.21731,-1.902074 -15.54083,-7.053092 -2.09727,-0.954046 -5.336877,-2.421411 -7.199139,-3.26086 l -3.385921,-1.526242 -0.261699,0.202809 c -0.143896,0.111621 -0.490771,0.466487 -0.770775,0.788801 -0.90039,1.036446 -2.504605,2.19019 -3.722352,2.67705 -0.203071,0.08124 -0.674471,0.216895 -1.047503,0.301518 -0.781003,0.177002 -0.875069,0.306775 -1.154739,1.590234 -0.08828,0.405311 -0.632532,2.843434 -1.209364,5.418083 -1.663677,7.425615 -5.974419,26.861725 -6.802872,30.672529 -0.415411,1.91081 -1.566349,7.168518 -2.557671,11.683795 -2.712359,12.354409 -3.487979,15.930589 -3.619227,16.687679 l -0.119273,0.68792 0.927725,0.65437 c 0.510237,0.35991 1.128756,0.84751 1.37447,1.08358 0.676493,0.64993 1.778101,2.23483 2.198174,3.16253 l 0.374428,0.82687 0.424296,-0.001 c 0.233356,-7.2e-4 2.893912,0.0343 5.912373,0.0779 z m 64.0827,6.32875 c 0.86146,-0.32647 2.07656,-1.36381 2.55752,-2.18324 0.27683,-0.47166 0.36407,-0.76297 0.53005,-1.76991 0.22669,-1.37526 0.20346,-2.15706 -0.0888,-2.98914 -0.28025,-0.7978 -1.13064,-1.94422 -1.77233,-2.38927 -0.47527,-0.32964 -0.67975,-0.39851 -1.66487,-0.56073 -1.34371,-0.22131 -2.16532,-0.17344 -3.00394,0.17495 -0.77195,0.32067 -1.66543,1.10465 -2.11089,1.85219 -0.3124,0.52419 -0.36675,0.72011 -0.57074,2.05667 -0.27604,1.80851 -0.24355,2.55274 0.14759,3.38331 0.75242,1.59784 1.96901,2.36454 4.07795,2.57009 1.12795,0.10998 1.2508,0.10056 1.89848,-0.14492 z m -9.28944,-60.346904 c 2.16773,-0.327039 3.62851,-1.966289 3.94353,-4.425292 0.32309,-2.522042 -0.62953,-4.38499 -2.73742,-5.353335 -1.45329,-0.667626 -3.63088,-0.443508 -4.93002,0.507209 -1.33833,0.979477 -2.22339,3.507186 -1.85459,5.296682 0.38071,1.847429 1.42913,3.20323 2.85507,3.69216 0.69691,0.238974 2.0689,0.381331 2.72344,0.282584 z M 83.157771,36.901014 c 1.510135,-0.02411 2.844251,-0.801624 3.680836,-2.145224 0.515721,-0.828214 0.704862,-1.374414 0.841747,-2.430596 0.322535,-2.489859 -0.790777,-4.491048 -2.968828,-5.336085 -2.169049,-0.84149 -4.627853,-0.04765 -5.76782,1.862213 -0.758782,1.271217 -1.078035,3.45223 -0.690353,4.716225 0.520379,1.696708 1.501521,2.67716 3.105351,3.103218 0.892854,0.237176 0.94518,0.243872 1.799069,0.230167 z"
       id="path837"
       inkscape:connector-curvature="0"
       inkscape:export-xdpi="82.227051"
       inkscape:export-ydpi="82.227051" />
    <flowRoot
       xml:space="preserve"
       id="flowRoot847"
       style="fill:black;fill-opacity:1;stroke:none;font-family:sans-serif;font-style:normal;font-weight:normal;font-size:40px;line-height:1.25;letter-spacing:0px;word-spacing:0px"><flowRegion
         id="flowRegion849"><rect
           id="rect851"
           width="97.14286"
           height="74.285713"
           x="-1925.7142"
           y="548.23395" /></flowRegion><flowPara
         id="flowPara853"></flowPara></flowRoot>    <flowRoot
       xml:space="preserve"
       id="flowRoot855"
       style="font-style:normal;font-weight:normal;font-size:40px;line-height:1.25;font-family:sans-serif;letter-spacing:0px;word-spacing:0px;fill:#000000;fill-opacity:1;stroke:none"
       transform="scale(0.26458333)"><flowRegion
         id="flowRegion857"><rect
           id="rect859"
           width="108.57143"
           height="171.42857"
           x="-1845.7142"
           y="556.80542" /></flowRegion><flowPara
         id="flowPara861"
         style="font-size:160.00000202px;-inkscape-font-specification:'Calibri Bold';font-family:Calibri;font-weight:bold;font-style:normal;font-stretch:normal;font-variant:normal">T</flowPara></flowRoot>    <text
       xml:space="preserve"
       style="font-style:normal;font-weight:normal;font-size:42.33333206px;line-height:1.25;font-family:sans-serif;letter-spacing:0px;word-spacing:0px;fill:#ff0000;fill-opacity:1;stroke:none;stroke-width:0.26458332"
       x="90.336319"
       y="98.184517"
       id="text865"
       inkscape:export-xdpi="82.227051"
       inkscape:export-ydpi="82.227051"><tspan
         sodipodi:role="line"
         id="tspan863"
         x="90.336319"
         y="98.184517"
         style="fill:#ff0000;fill-opacity:1;stroke-width:0.26458332">T</tspan></text>
  </g>
</svg>
