<?xml version="1.0" encoding="UTF-8" standalone="no"?>
<!-- Created with Inkscape (http://www.inkscape.org/) -->

<svg
   xmlns:dc="http://purl.org/dc/elements/1.1/"
   xmlns:cc="http://creativecommons.org/ns#"
   xmlns:rdf="http://www.w3.org/1999/02/22-rdf-syntax-ns#"
   xmlns:svg="http://www.w3.org/2000/svg"
   xmlns="http://www.w3.org/2000/svg"
   xmlns:sodipodi="http://sodipodi.sourceforge.net/DTD/sodipodi-0.dtd"
   xmlns:inkscape="http://www.inkscape.org/namespaces/inkscape"
   width="210mm"
   height="297mm"
   viewBox="0 0 210 297"
   version="1.1"
   id="svg8"
   inkscape:version="0.92.4 (5da689c313, 2019-01-14)"
   sodipodi:docname="vulristics.svg">
  <defs
     id="defs2">
    <filter
       inkscape:collect="always"
       style="color-interpolation-filters:sRGB"
       id="filter984"
       x="-0.011386905"
       width="1.0227738"
       y="-0.012682872"
       height="1.0253657">
      <feGaussianBlur
         inkscape:collect="always"
         stdDeviation="0.81439781"
         id="feGaussianBlur986" />
    </filter>
    <filter
       inkscape:collect="always"
       style="color-interpolation-filters:sRGB"
       id="filter984-2"
       x="-0.011386905"
       width="1.0227737"
       y="-0.012682872"
       height="1.0253657">
      <feGaussianBlur
         inkscape:collect="always"
         stdDeviation="0.81439781"
         id="feGaussianBlur986-5" />
    </filter>
  </defs>
  <sodipodi:namedview
     id="base"
     pagecolor="#ffffff"
     bordercolor="#666666"
     borderopacity="1.0"
     inkscape:pageopacity="0.0"
     inkscape:pageshadow="2"
     inkscape:zoom="0.45254834"
     inkscape:cx="-1124.1414"
     inkscape:cy="197.76958"
     inkscape:document-units="mm"
     inkscape:current-layer="layer1"
     showgrid="false"
     showguides="false"
     inkscape:window-width="1920"
     inkscape:window-height="986"
     inkscape:window-x="-11"
     inkscape:window-y="-11"
     inkscape:window-maximized="1" />
  <metadata
     id="metadata5">
    <rdf:RDF>
      <cc:Work
         rdf:about="">
        <dc:format>image/svg+xml</dc:format>
        <dc:type
           rdf:resource="http://purl.org/dc/dcmitype/StillImage" />
        <dc:title></dc:title>
      </cc:Work>
    </rdf:RDF>
  </metadata>
  <g
     inkscape:label="Layer 1"
     inkscape:groupmode="layer"
     id="layer1">
    <path
       style="fill:#000000;stroke-width:0.10464612;stroke:#ff0000;stroke-opacity:1"
       d="m -535.08737,417.2294 c -0.35428,-0.015 -0.85323,-0.0936 -1.10879,-0.17466 -0.25557,-0.0811 -5.5242,-2.95933 -11.70808,-6.39612 -6.18387,-3.43679 -11.27977,-6.2386 -11.32424,-6.22624 -0.0444,0.0124 -0.46917,0.46282 -0.94382,1.00103 -4.14205,4.69689 -9.55658,8.61989 -15.19698,11.01071 -7.39585,3.13488 -15.04496,4.19474 -22.83423,3.16395 -11.84537,-1.56761 -22.63194,-8.18638 -29.22567,-17.93321 -1.49557,-2.21077 -2.20536,-3.4505 -3.19195,-5.57517 -1.27131,-2.73784 -1.6282,-3.72076 -2.46866,-6.7992 -0.83156,-3.04582 -1.0844,-4.41875 -1.35852,-7.37678 -0.96446,-10.4074 2.38143,-21.33071 9.13247,-29.81467 3.98936,-5.01341 9.55366,-9.44116 15.09719,-12.01347 2.93602,-1.36238 3.47641,-1.5582 7.06765,-2.56103 3.59999,-1.00531 4.2806,-1.14394 7.23191,-1.47322 7.23408,-0.80709 14.91944,0.41072 21.86471,3.46465 1.65484,0.72764 5.23171,2.73179 6.67181,3.73825 7.16959,5.01071 12.29593,11.54259 15.33623,19.54109 0.79749,2.09806 1.94886,6.51439 2.2254,8.53604 0.93836,6.85976 0.26354,13.63052 -1.9851,19.91724 l -0.31304,0.87524 11.49632,6.41121 c 12.09844,6.74699 11.84844,6.59267 12.58681,7.77023 0.39416,0.62859 0.5421,1.16759 0.52536,1.91504 -0.0121,0.55299 -0.13467,0.80019 -2.02766,4.09116 -2.36976,4.11986 -2.40179,4.15785 -3.89686,4.6221 -0.78468,0.24367 -1.15135,0.30709 -1.65256,0.28589 z m -44.52611,-6.59917 c 11.38362,-4.38794 19.73976,-14.05427 22.2949,-25.79056 2.71541,-12.47241 -1.54405,-25.19557 -11.21561,-33.50145 -8.26164,-7.09504 -19.44603,-9.96781 -30.23249,-7.76536 -1.99181,0.4067 -4.77873,1.24921 -6.51943,1.97088 -6.10463,2.53091 -11.37133,6.63721 -15.28768,11.9194 -1.09726,1.47993 -3.17023,5.03491 -3.8934,6.6769 -2.745,6.23251 -3.66284,13.10329 -2.61253,19.55689 0.28922,1.77728 1.26208,5.44297 1.85085,6.9741 5.31609,13.82449 18.98648,22.78146 33.99545,22.27415 1.62459,-0.0549 3.61229,-0.24846 4.99289,-0.4862 1.27322,-0.21921 5.42073,-1.36375 6.62702,-1.82876 z"
       id="path843-3"
       inkscape:connector-curvature="0"
       inkscape:export-xdpi="266.43073"
       inkscape:export-ydpi="266.43073" />
    <path
       style="fill:#ff0000;stroke-width:0.19681799;stroke:none;stroke-opacity:1"
       d="m -613.09247,394.60448 v -4.98452 l 3.02823,-0.73927 c 3.01334,-0.73562 3.02767,-0.74172 2.91359,-1.23913 -0.063,-0.27491 -0.22019,-1.17146 -0.34917,-1.9923 l -0.23454,-1.49247 -5.23164,-0.0514 -5.23162,-0.0514 -0.44665,-2.41226 c -1.13483,-6.12887 -1.69112,-9.31036 -1.63511,-9.35147 0.10609,-0.0779 3.43922,-0.68439 3.48768,-0.63462 0.0255,0.0261 0.32804,1.87122 0.67238,4.10015 0.34434,2.22893 0.67165,4.24987 0.72735,4.49097 l 0.10126,0.43837 3.8396,-0.0524 3.83959,-0.0523 0.47536,-1.72218 c 0.26146,-0.94719 0.79945,-2.33353 1.19554,-3.08073 0.39609,-0.7472 0.64263,-1.38721 0.54785,-1.42224 -0.0948,-0.035 -1.84339,-0.70103 -3.88582,-1.48003 l -3.71352,-1.41634 -0.0536,-4.94357 -0.0536,-4.94359 h 1.80997 1.80997 v 3.72633 3.72631 l 3.06113,1.19692 c 1.68364,0.65833 3.20043,1.19594 3.37064,1.19472 0.17021,-10e-4 0.68431,-0.37129 1.14243,-0.82239 l 0.83296,-0.82018 -0.42261,-1.15789 c -0.51839,-1.42031 -0.70106,-4.38807 -0.36569,-5.94116 0.69931,-3.23855 3.68331,-6.39348 7.13485,-7.54354 1.51599,-0.50513 4.13718,-0.61074 5.80052,-0.23371 3.90378,0.88489 7.06827,3.89768 8.07996,7.69263 0.45158,1.69391 0.2817,4.24508 -0.40117,6.02466 l -0.51793,1.34975 0.73618,0.72481 c 0.40489,0.39864 0.87592,0.7258 1.04672,0.72702 0.17078,0.001 1.68805,-0.53639 3.37169,-1.19472 l 3.06113,-1.19692 v -3.72631 -3.72633 h 1.80997 1.80996 l -0.0536,4.9349 -0.0535,4.9349 -0.9033,0.36375 c -0.49681,0.20006 -2.21306,0.85351 -3.81389,1.45211 -1.60082,0.5986 -2.93897,1.1145 -2.97365,1.14646 -0.0347,0.0319 0.26248,0.6796 0.66038,1.43922 0.3979,0.75961 0.93189,2.13628 1.18666,3.05924 l 0.4632,1.6781 3.73471,0.0524 c 3.40228,0.0477 3.75155,0.022 3.92383,-0.28947 0.104,-0.18807 0.47726,-2.20904 0.82947,-4.49104 0.35219,-2.28201 0.66244,-4.1705 0.68941,-4.19665 0.05,-0.0485 3.3817,0.55528 3.48782,0.6321 0.0621,0.045 -0.60397,3.8627 -1.53104,8.77505 l -0.56452,2.9912 -5.22342,0.0514 -5.22342,0.0514 -0.23454,1.49247 c -0.129,0.82085 -0.28647,1.71913 -0.34994,1.99617 -0.1152,0.50285 -0.11012,0.50499 2.9136,1.22881 l 3.029,0.72508 v 4.99485 4.99485 h -1.80658 -1.80658 v -3.63136 -3.63136 l -1.55566,-0.34292 c -0.85562,-0.18862 -1.75238,-0.38602 -1.99279,-0.43867 -0.33396,-0.0731 -0.51046,0.0406 -0.7479,0.48204 -1.15026,2.13848 -4.07622,4.71367 -6.84421,6.02372 -6.63233,3.13896 -14.45926,1.4108 -19.17041,-4.23277 -0.557,-0.66724 -1.15257,-1.47316 -1.32349,-1.79095 -0.23745,-0.44143 -0.41394,-0.55519 -0.74791,-0.48204 -0.24043,0.0527 -1.13718,0.25005 -1.99279,0.43867 l -1.55566,0.34292 v 3.63136 3.63136 h -1.80658 -1.80658 z m 19.87236,-11.45651 v -12.75162 l -0.95159,0.12541 c -1.44753,0.19074 -4.05427,1.52726 -5.55181,2.84651 -2.65746,2.34107 -4.1305,5.48933 -4.29118,9.17129 -0.21824,5.00103 1.8947,9.15556 6.00435,11.80602 1.36933,0.88312 4.17569,1.86988 4.63968,1.63139 0.0828,-0.0426 0.15055,-5.81561 0.15055,-12.829 z m 6.53725,12.08109 c 3.00593,-1.20746 5.89944,-4.35906 7.05685,-7.68626 0.48964,-1.40755 0.54235,-1.83076 0.54276,-4.3572 3.4e-4,-2.50484 -0.0544,-2.95488 -0.52257,-4.29213 -0.70839,-2.02333 -2.12034,-4.13494 -3.68875,-5.51662 -1.50245,-1.32357 -4.14621,-2.68411 -5.55966,-2.8611 l -0.95347,-0.1194 v 12.73085 c 0,7.00196 0.0503,12.77919 0.11178,12.83831 0.13669,0.1314 1.96526,-0.31554 3.01306,-0.73645 z m -5.64932,-28.39313 c 2.38395,-0.11173 4.33271,0.16073 6.30616,0.88163 l 1.03218,0.37706 0.30294,-0.98072 c 0.39753,-1.28694 0.37186,-3.28934 -0.0567,-4.42348 -2.29821,-6.08208 -11.23444,-6.08208 -13.53265,0 -0.42659,1.12896 -0.45469,3.135 -0.0618,4.40712 l 0.29788,0.96436 1.74426,-0.56089 c 1.3442,-0.43225 2.25421,-0.58479 3.96765,-0.66508 z"
       id="path867-9"
       inkscape:connector-curvature="0"
       inkscape:export-xdpi="266.43073"
       inkscape:export-ydpi="266.43073" />
    <flowRoot
       xml:space="preserve"
       id="flowRoot869-6"
       style="font-style:normal;font-weight:normal;font-size:265.62667847px;line-height:1.25;font-family:sans-serif;letter-spacing:0px;word-spacing:0px;fill:#000000;fill-opacity:1;stroke:none;stroke-opacity:1;"
       transform="matrix(0.26458333,0,0,0.26458333,-66.503323,88.769714)"
       inkscape:export-xdpi="266.43073"
       inkscape:export-ydpi="266.43073"><flowRegion
         id="flowRegion871-7"
         style="font-size:265.62667847px;stroke:none;stroke-opacity:1;"><rect
           id="rect873-7"
           width="1096.0155"
           height="331.4563"
           x="-1767.767"
           y="928.06531"
           style="font-size:265.62667847px;stroke:none;stroke-opacity:1;" /></flowRegion><flowPara
         id="flowPara875-3"
         style="font-style:normal;font-variant:normal;font-weight:normal;font-stretch:normal;font-size:265.62667847px;font-family:'Trebuchet MS';-inkscape-font-specification:'Trebuchet MS';stroke:none;stroke-opacity:1;">Vulristics</flowPara></flowRoot>    <path
       style="fill:#000000;stroke-width:0.10464612;stroke:none"
       d="m -253.42433,181.39259 c -0.35428,-0.015 -0.85323,-0.0936 -1.10879,-0.17466 -0.25557,-0.0811 -5.5242,-2.95933 -11.70808,-6.39613 -6.18387,-3.43678 -11.27977,-6.2386 -11.32424,-6.22623 -0.0444,0.0124 -0.46917,0.46282 -0.94382,1.00103 -4.14205,4.69688 -9.55658,8.61989 -15.19698,11.01071 -7.39585,3.13488 -15.04496,4.19474 -22.83423,3.16395 -11.84537,-1.56761 -22.63194,-8.18638 -29.22567,-17.93321 -1.49557,-2.21077 -2.20536,-3.4505 -3.19195,-5.57517 -1.27131,-2.73784 -1.6282,-3.72076 -2.46866,-6.79921 -0.83156,-3.04582 -1.0844,-4.41874 -1.35852,-7.37677 -0.96446,-10.40741 2.38143,-21.33071 9.13247,-29.81467 3.98936,-5.01341 9.55366,-9.44116 15.09719,-12.01347 2.93602,-1.36239 3.47641,-1.55821 7.06765,-2.56104 3.59999,-1.00531 4.2806,-1.14394 7.23191,-1.47322 7.23408,-0.807086 14.91944,0.41072 21.86471,3.46465 1.65484,0.72765 5.23171,2.7318 6.67181,3.73826 7.16959,5.01071 12.29593,11.54259 15.33623,19.54109 0.79749,2.09805 1.94886,6.51439 2.2254,8.53604 0.93836,6.85976 0.26354,13.63051 -1.9851,19.91724 l -0.31304,0.87524 11.49632,6.41121 c 12.09844,6.74699 11.84844,6.59266 12.58681,7.77022 0.39416,0.6286 0.5421,1.1676 0.52536,1.91505 -0.0121,0.55299 -0.13467,0.80019 -2.02766,4.09116 -2.36976,4.11986 -2.40179,4.15785 -3.89686,4.6221 -0.78468,0.24366 -1.15135,0.30709 -1.65256,0.28589 z m -44.52611,-6.59918 c 11.38362,-4.38794 19.73976,-14.05427 22.2949,-25.79055 2.71541,-12.47242 -1.54405,-25.19557 -11.21561,-33.50145 -8.26164,-7.09505 -19.44603,-9.96781 -30.23249,-7.76536 -1.99181,0.40669 -4.77873,1.24921 -6.51943,1.97088 -6.10463,2.53091 -11.37133,6.63721 -15.28768,11.9194 -1.09726,1.47993 -3.17023,5.0349 -3.8934,6.6769 -2.745,6.2325 -3.66284,13.10328 -2.61253,19.55688 0.28922,1.77728 1.26208,5.44298 1.85085,6.97411 5.31609,13.82449 18.98648,22.78145 33.99545,22.27415 1.62459,-0.0549 3.61229,-0.24846 4.99289,-0.4862 1.27322,-0.21921 5.42073,-1.36376 6.62702,-1.82876 z"
       id="path843-3-9"
       inkscape:connector-curvature="0"
       inkscape:export-xdpi="433.99875"
       inkscape:export-ydpi="433.99875" />
    <path
       style="fill:#ff0000;stroke-width:0.19681799;stroke:none"
       d="m -331.42943,158.76767 v -4.98452 l 3.02823,-0.73927 c 3.01334,-0.73562 3.02767,-0.74172 2.91359,-1.23913 -0.063,-0.27491 -0.22019,-1.17146 -0.34917,-1.9923 l -0.23454,-1.49247 -5.23164,-0.0514 -5.23162,-0.0514 -0.44665,-2.41226 c -1.13483,-6.12887 -1.69112,-9.31036 -1.63511,-9.35147 0.10609,-0.0779 3.43922,-0.68439 3.48768,-0.63462 0.0255,0.0261 0.32804,1.87122 0.67238,4.10015 0.34434,2.22893 0.67165,4.24987 0.72735,4.49097 l 0.10126,0.43837 3.8396,-0.0524 3.83959,-0.0523 0.47536,-1.72219 c 0.26146,-0.94719 0.79945,-2.33352 1.19554,-3.08073 0.39609,-0.7472 0.64263,-1.3872 0.54785,-1.42224 -0.0948,-0.035 -1.84339,-0.70102 -3.88582,-1.48002 l -3.71352,-1.41635 -0.0536,-4.94357 -0.0536,-4.94359 h 1.80997 1.80997 v 3.72633 3.72631 l 3.06113,1.19693 c 1.68364,0.65832 3.20043,1.19593 3.37064,1.19471 0.17021,-10e-4 0.68431,-0.37129 1.14243,-0.82238 l 0.83296,-0.82019 -0.42261,-1.15788 c -0.51839,-1.42031 -0.70106,-4.38807 -0.36569,-5.94117 0.69931,-3.23855 3.68331,-6.39348 7.13485,-7.54354 1.51599,-0.50513 4.13718,-0.61074 5.80052,-0.23371 3.90378,0.88489 7.06827,3.89768 8.07996,7.69264 0.45158,1.6939 0.2817,4.24507 -0.40117,6.02465 l -0.51793,1.34975 0.73618,0.72481 c 0.40489,0.39864 0.87592,0.7258 1.04672,0.72702 0.17078,0.001 1.68805,-0.53639 3.37169,-1.19471 l 3.06113,-1.19693 v -3.72631 -3.72633 h 1.80997 1.80996 l -0.0536,4.93491 -0.0535,4.9349 -0.9033,0.36374 c -0.49681,0.20006 -2.21306,0.85351 -3.81389,1.45211 -1.60082,0.5986 -2.93897,1.1145 -2.97365,1.14647 -0.0347,0.0319 0.26248,0.67959 0.66038,1.43921 0.3979,0.75962 0.93189,2.13629 1.18666,3.05924 l 0.4632,1.67811 3.73471,0.0524 c 3.40228,0.0477 3.75155,0.022 3.92383,-0.28947 0.104,-0.18807 0.47726,-2.20904 0.82947,-4.49104 0.35219,-2.28201 0.66244,-4.1705 0.68941,-4.19665 0.05,-0.0485 3.3817,0.55528 3.48782,0.6321 0.0621,0.045 -0.60397,3.8627 -1.53104,8.77505 l -0.56452,2.9912 -5.22342,0.0514 -5.22342,0.0514 -0.23454,1.49247 c -0.129,0.82085 -0.28647,1.71913 -0.34994,1.99617 -0.1152,0.50285 -0.11012,0.50499 2.9136,1.22881 l 3.029,0.72508 v 4.99485 4.99485 h -1.80658 -1.80658 v -3.63136 -3.63136 l -1.55566,-0.34292 c -0.85562,-0.18862 -1.75238,-0.38602 -1.99279,-0.43867 -0.33396,-0.0731 -0.51046,0.0406 -0.7479,0.48204 -1.15026,2.13848 -4.07622,4.71367 -6.84421,6.02372 -6.63233,3.13896 -14.45926,1.4108 -19.17041,-4.23277 -0.557,-0.66724 -1.15257,-1.47316 -1.32349,-1.79095 -0.23745,-0.44143 -0.41394,-0.55519 -0.74791,-0.48204 -0.24043,0.0527 -1.13718,0.25005 -1.99279,0.43867 l -1.55566,0.34292 v 3.63136 3.63136 h -1.80658 -1.80658 z m 19.87236,-11.45652 v -12.75162 l -0.95159,0.12541 c -1.44753,0.19074 -4.05427,1.52727 -5.55181,2.84652 -2.65746,2.34107 -4.1305,5.48932 -4.29118,9.17129 -0.21824,5.00102 1.8947,9.15555 6.00435,11.80602 1.36933,0.88312 4.17569,1.86987 4.63968,1.63138 0.0828,-0.0426 0.15055,-5.8156 0.15055,-12.829 z m 6.53725,12.0811 c 3.00593,-1.20746 5.89944,-4.35906 7.05685,-7.68626 0.48964,-1.40755 0.54235,-1.83076 0.54276,-4.3572 2.6e-4,-2.50484 -0.0544,-2.95488 -0.52257,-4.29214 -0.70839,-2.02333 -2.12034,-4.13494 -3.68875,-5.51661 -1.50245,-1.32357 -4.14621,-2.68411 -5.55966,-2.8611 l -0.95347,-0.11941 v 12.73085 c 0,7.00196 0.0503,12.77919 0.11178,12.83832 0.13669,0.1314 1.96526,-0.31554 3.01306,-0.73645 z m -5.64932,-28.39313 c 2.38395,-0.11174 4.33271,0.16072 6.30616,0.88162 l 1.03218,0.37706 0.30294,-0.98072 c 0.39753,-1.28693 0.37186,-3.28934 -0.0567,-4.42347 -2.29821,-6.08208 -11.23444,-6.08208 -13.53265,0 -0.42659,1.12895 -0.45469,3.135 -0.0618,4.40712 l 0.29788,0.96436 1.74426,-0.56089 c 1.3442,-0.43225 2.25421,-0.58479 3.96765,-0.66508 z"
       id="path867-9-6"
       inkscape:connector-curvature="0"
       inkscape:export-xdpi="433.99875"
       inkscape:export-ydpi="433.99875" />
    <rect
       style="opacity:0.95;fill:none;fill-opacity:1;stroke:none;stroke-width:2.39936662;stroke-linejoin:round;stroke-miterlimit:4;stroke-dasharray:none;stroke-opacity:1;filter:url(#filter984)"
       id="rect982"
       width="171.64934"
       height="154.10979"
       x="-386.33588"
       y="86.644432"
       inkscape:export-xdpi="433.99875"
       inkscape:export-ydpi="433.99875" />
    <rect
       style="opacity:0.95;fill:none;fill-opacity:1;stroke:none;stroke-width:2.39936662;stroke-linejoin:round;stroke-miterlimit:4;stroke-dasharray:none;stroke-opacity:1;filter:url(#filter984-2)"
       id="rect982-5"
       width="171.64934"
       height="154.10979"
       x="-654.10651"
       y="293.61127"
       transform="matrix(2.4159459,0,0,0.78339444,927.14094,86.582125)"
       inkscape:export-xdpi="266"
       inkscape:export-ydpi="266" />
    <flowRoot
       xml:space="preserve"
       id="flowRoot869-6-0"
       style="font-style:normal;font-weight:normal;font-size:265.62667847px;line-height:1.25;font-family:sans-serif;letter-spacing:0px;word-spacing:0px;fill:#000000;fill-opacity:1;stroke:none;stroke-opacity:1"
       transform="matrix(0.26458333,0,0,0.26458333,89.190487,-87.175165)"
       inkscape:export-xdpi="433.99875"
       inkscape:export-ydpi="433.99875"><flowRegion
         id="flowRegion871-7-4"
         style="font-size:265.62667847px;stroke:none;stroke-opacity:1"><rect
           id="rect873-7-0"
           width="1096.0155"
           height="331.4563"
           x="-1767.767"
           y="928.06531"
           style="font-size:265.62667847px;stroke:none;stroke-opacity:1" /></flowRegion><flowPara
         id="flowPara875-3-2"
         style="font-style:normal;font-variant:normal;font-weight:normal;font-stretch:normal;font-size:146.66667175px;font-family:'Trebuchet MS';-inkscape-font-specification:'Trebuchet MS';stroke:none;stroke-opacity:1">Vulristics</flowPara></flowRoot>    <flowRoot
       xml:space="preserve"
       id="flowRoot1057"
       style="fill:black;fill-opacity:1;stroke:none;font-family:sans-serif;font-style:normal;font-weight:normal;font-size:40px;line-height:1.25;letter-spacing:0px;word-spacing:0px"><flowRegion
         id="flowRegion1059"><rect
           id="rect1061"
           width="1933.4951"
           height="669.54175"
           x="-2631.7629"
           y="1120.3099" /></flowRegion><flowPara
         id="flowPara1063"></flowPara></flowRoot>    <flowRoot
       xml:space="preserve"
       id="flowRoot1065"
       style="fill:black;fill-opacity:1;stroke:none;font-family:sans-serif;font-style:normal;font-weight:normal;font-size:40px;line-height:1.25;letter-spacing:0px;word-spacing:0px"><flowRegion
         id="flowRegion1067"><rect
           id="rect1069"
           width="1241.8563"
           height="3595.196"
           x="-1895.9301"
           y="921.43622" /></flowRegion><flowPara
         id="flowPara1071"></flowPara></flowRoot>  </g>
</svg>
