<?xml version="1.0" encoding="UTF-8" standalone="no"?>
<!-- Created with Inkscape (http://www.inkscape.org/) -->

<svg
   width="1280"
   height="640"
   viewBox="0 0 338.66666 169.33333"
   version="1.1"
   id="svg8"
   inkscape:version="1.2.2 (b0a8486541, 2022-12-01)"
   sodipodi:docname="vulristics.svg"
   inkscape:export-filename="vulristics.png"
   inkscape:export-xdpi="96"
   inkscape:export-ydpi="96"
   xmlns:inkscape="http://www.inkscape.org/namespaces/inkscape"
   xmlns:sodipodi="http://sodipodi.sourceforge.net/DTD/sodipodi-0.dtd"
   xmlns="http://www.w3.org/2000/svg"
   xmlns:svg="http://www.w3.org/2000/svg"
   xmlns:rdf="http://www.w3.org/1999/02/22-rdf-syntax-ns#"
   xmlns:cc="http://creativecommons.org/ns#"
   xmlns:dc="http://purl.org/dc/elements/1.1/">
  <defs
     id="defs2">
    <filter
       inkscape:collect="always"
       style="color-interpolation-filters:sRGB"
       id="filter984"
       x="-0.011386905"
       width="1.0227738"
       y="-0.012682872"
       height="1.0253657">
      <feGaussianBlur
         inkscape:collect="always"
         stdDeviation="0.81439781"
         id="feGaussianBlur986" />
    </filter>
    <filter
       inkscape:collect="always"
       style="color-interpolation-filters:sRGB"
       id="filter984-2"
       x="-0.011386905"
       width="1.0227738"
       y="-0.012682872"
       height="1.0253657">
      <feGaussianBlur
         inkscape:collect="always"
         stdDeviation="0.81439781"
         id="feGaussianBlur986-5" />
    </filter>
    <filter
       inkscape:collect="always"
       style="color-interpolation-filters:sRGB"
       id="filter984-3"
       x="-0.011386905"
       width="1.0227738"
       y="-0.012682872"
       height="1.0253657">
      <feGaussianBlur
         inkscape:collect="always"
         stdDeviation="0.81439781"
         id="feGaussianBlur986-6" />
    </filter>
  </defs>
  <sodipodi:namedview
     id="base"
     pagecolor="#ffffff"
     bordercolor="#666666"
     borderopacity="1.0"
     inkscape:pageopacity="0.0"
     inkscape:pageshadow="2"
     inkscape:zoom="0.45254834"
     inkscape:cx="754.61552"
     inkscape:cy="385.59417"
     inkscape:document-units="mm"
     inkscape:current-layer="layer1"
     showgrid="false"
     showguides="false"
     inkscape:window-width="1920"
     inkscape:window-height="1032"
     inkscape:window-x="0"
     inkscape:window-y="25"
     inkscape:window-maximized="1"
     inkscape:showpageshadow="2"
     inkscape:pagecheckerboard="0"
     inkscape:deskcolor="#d1d1d1" />
  <metadata
     id="metadata5">
    <rdf:RDF>
      <cc:Work
         rdf:about="">
        <dc:format>image/svg+xml</dc:format>
        <dc:type
           rdf:resource="http://purl.org/dc/dcmitype/StillImage" />
      </cc:Work>
    </rdf:RDF>
  </metadata>
  <g
     inkscape:label="Layer 1"
     inkscape:groupmode="layer"
     id="layer1">
    <flowRoot
       xml:space="preserve"
       id="flowRoot869-6"
       style="font-style:normal;font-weight:normal;font-size:265.627px;line-height:1.25;font-family:sans-serif;letter-spacing:0px;word-spacing:0px;fill:#000000;fill-opacity:1;stroke:none;stroke-opacity:1"
       transform="matrix(0.26458333,0,0,0.26458333,-66.503323,88.769714)"
       inkscape:export-xdpi="266.43073"
       inkscape:export-ydpi="266.43073"><flowRegion
         id="flowRegion871-7"
         style="font-size:265.627px;stroke:none;stroke-opacity:1"><rect
           id="rect873-7"
           width="1096.0155"
           height="331.4563"
           x="-1767.767"
           y="928.06531"
           style="font-size:265.62667847px;stroke:none;stroke-opacity:1;" /></flowRegion><flowPara
         id="flowPara875-3"
         style="font-style:normal;font-variant:normal;font-weight:normal;font-stretch:normal;font-size:265.627px;font-family:'Trebuchet MS';-inkscape-font-specification:'Trebuchet MS';stroke:none;stroke-opacity:1">Vulristics</flowPara></flowRoot>
    <path
       style="fill:#000000;stroke:none;stroke-width:0.104646"
       d="m -253.42433,181.39259 c -0.35428,-0.015 -0.85323,-0.0936 -1.10879,-0.17466 -0.25557,-0.0811 -5.5242,-2.95933 -11.70808,-6.39613 -6.18387,-3.43678 -11.27977,-6.2386 -11.32424,-6.22623 -0.0444,0.0124 -0.46917,0.46282 -0.94382,1.00103 -4.14205,4.69688 -9.55658,8.61989 -15.19698,11.01071 -7.39585,3.13488 -15.04496,4.19474 -22.83423,3.16395 -11.84537,-1.56761 -22.63194,-8.18638 -29.22567,-17.93321 -1.49557,-2.21077 -2.20536,-3.4505 -3.19195,-5.57517 -1.27131,-2.73784 -1.6282,-3.72076 -2.46866,-6.79921 -0.83156,-3.04582 -1.0844,-4.41874 -1.35852,-7.37677 -0.96446,-10.40741 2.38143,-21.33071 9.13247,-29.81467 3.98936,-5.01341 9.55366,-9.44116 15.09719,-12.01347 2.93602,-1.36239 3.47641,-1.55821 7.06765,-2.56104 3.59999,-1.00531 4.2806,-1.14394 7.23191,-1.47322 7.23408,-0.807086 14.91944,0.41072 21.86471,3.46465 1.65484,0.72765 5.23171,2.7318 6.67181,3.73826 7.16959,5.01071 12.29593,11.54259 15.33623,19.54109 0.79749,2.09805 1.94886,6.51439 2.2254,8.53604 0.93836,6.85976 0.26354,13.63051 -1.9851,19.91724 l -0.31304,0.87524 11.49632,6.41121 c 12.09844,6.74699 11.84844,6.59266 12.58681,7.77022 0.39416,0.6286 0.5421,1.1676 0.52536,1.91505 -0.0121,0.55299 -0.13467,0.80019 -2.02766,4.09116 -2.36976,4.11986 -2.40179,4.15785 -3.89686,4.6221 -0.78468,0.24366 -1.15135,0.30709 -1.65256,0.28589 z m -44.52611,-6.59918 c 11.38362,-4.38794 19.73976,-14.05427 22.2949,-25.79055 2.71541,-12.47242 -1.54405,-25.19557 -11.21561,-33.50145 -8.26164,-7.09505 -19.44603,-9.96781 -30.23249,-7.76536 -1.99181,0.40669 -4.77873,1.24921 -6.51943,1.97088 -6.10463,2.53091 -11.37133,6.63721 -15.28768,11.9194 -1.09726,1.47993 -3.17023,5.0349 -3.8934,6.6769 -2.745,6.2325 -3.66284,13.10328 -2.61253,19.55688 0.28922,1.77728 1.26208,5.44298 1.85085,6.97411 5.31609,13.82449 18.98648,22.78145 33.99545,22.27415 1.62459,-0.0549 3.61229,-0.24846 4.99289,-0.4862 1.27322,-0.21921 5.42073,-1.36376 6.62702,-1.82876 z"
       id="path843-3-9"
       inkscape:connector-curvature="0"
       inkscape:export-xdpi="433.99875"
       inkscape:export-ydpi="433.99875" />
    <path
       style="fill:#ff0000;stroke:none;stroke-width:0.196818"
       d="m -331.42943,158.76767 v -4.98452 l 3.02823,-0.73927 c 3.01334,-0.73562 3.02767,-0.74172 2.91359,-1.23913 -0.063,-0.27491 -0.22019,-1.17146 -0.34917,-1.9923 l -0.23454,-1.49247 -5.23164,-0.0514 -5.23162,-0.0514 -0.44665,-2.41226 c -1.13483,-6.12887 -1.69112,-9.31036 -1.63511,-9.35147 0.10609,-0.0779 3.43922,-0.68439 3.48768,-0.63462 0.0255,0.0261 0.32804,1.87122 0.67238,4.10015 0.34434,2.22893 0.67165,4.24987 0.72735,4.49097 l 0.10126,0.43837 3.8396,-0.0524 3.83959,-0.0523 0.47536,-1.72219 c 0.26146,-0.94719 0.79945,-2.33352 1.19554,-3.08073 0.39609,-0.7472 0.64263,-1.3872 0.54785,-1.42224 -0.0948,-0.035 -1.84339,-0.70102 -3.88582,-1.48002 l -3.71352,-1.41635 -0.0536,-4.94357 -0.0536,-4.94359 h 1.80997 1.80997 v 3.72633 3.72631 l 3.06113,1.19693 c 1.68364,0.65832 3.20043,1.19593 3.37064,1.19471 0.17021,-10e-4 0.68431,-0.37129 1.14243,-0.82238 l 0.83296,-0.82019 -0.42261,-1.15788 c -0.51839,-1.42031 -0.70106,-4.38807 -0.36569,-5.94117 0.69931,-3.23855 3.68331,-6.39348 7.13485,-7.54354 1.51599,-0.50513 4.13718,-0.61074 5.80052,-0.23371 3.90378,0.88489 7.06827,3.89768 8.07996,7.69264 0.45158,1.6939 0.2817,4.24507 -0.40117,6.02465 l -0.51793,1.34975 0.73618,0.72481 c 0.40489,0.39864 0.87592,0.7258 1.04672,0.72702 0.17078,0.001 1.68805,-0.53639 3.37169,-1.19471 l 3.06113,-1.19693 v -3.72631 -3.72633 h 1.80997 1.80996 l -0.0536,4.93491 -0.0535,4.9349 -0.9033,0.36374 c -0.49681,0.20006 -2.21306,0.85351 -3.81389,1.45211 -1.60082,0.5986 -2.93897,1.1145 -2.97365,1.14647 -0.0347,0.0319 0.26248,0.67959 0.66038,1.43921 0.3979,0.75962 0.93189,2.13629 1.18666,3.05924 l 0.4632,1.67811 3.73471,0.0524 c 3.40228,0.0477 3.75155,0.022 3.92383,-0.28947 0.104,-0.18807 0.47726,-2.20904 0.82947,-4.49104 0.35219,-2.28201 0.66244,-4.1705 0.68941,-4.19665 0.05,-0.0485 3.3817,0.55528 3.48782,0.6321 0.0621,0.045 -0.60397,3.8627 -1.53104,8.77505 l -0.56452,2.9912 -5.22342,0.0514 -5.22342,0.0514 -0.23454,1.49247 c -0.129,0.82085 -0.28647,1.71913 -0.34994,1.99617 -0.1152,0.50285 -0.11012,0.50499 2.9136,1.22881 l 3.029,0.72508 v 4.99485 4.99485 h -1.80658 -1.80658 v -3.63136 -3.63136 l -1.55566,-0.34292 c -0.85562,-0.18862 -1.75238,-0.38602 -1.99279,-0.43867 -0.33396,-0.0731 -0.51046,0.0406 -0.7479,0.48204 -1.15026,2.13848 -4.07622,4.71367 -6.84421,6.02372 -6.63233,3.13896 -14.45926,1.4108 -19.17041,-4.23277 -0.557,-0.66724 -1.15257,-1.47316 -1.32349,-1.79095 -0.23745,-0.44143 -0.41394,-0.55519 -0.74791,-0.48204 -0.24043,0.0527 -1.13718,0.25005 -1.99279,0.43867 l -1.55566,0.34292 v 3.63136 3.63136 h -1.80658 -1.80658 z m 19.87236,-11.45652 v -12.75162 l -0.95159,0.12541 c -1.44753,0.19074 -4.05427,1.52727 -5.55181,2.84652 -2.65746,2.34107 -4.1305,5.48932 -4.29118,9.17129 -0.21824,5.00102 1.8947,9.15555 6.00435,11.80602 1.36933,0.88312 4.17569,1.86987 4.63968,1.63138 0.0828,-0.0426 0.15055,-5.8156 0.15055,-12.829 z m 6.53725,12.0811 c 3.00593,-1.20746 5.89944,-4.35906 7.05685,-7.68626 0.48964,-1.40755 0.54235,-1.83076 0.54276,-4.3572 2.6e-4,-2.50484 -0.0544,-2.95488 -0.52257,-4.29214 -0.70839,-2.02333 -2.12034,-4.13494 -3.68875,-5.51661 -1.50245,-1.32357 -4.14621,-2.68411 -5.55966,-2.8611 l -0.95347,-0.11941 v 12.73085 c 0,7.00196 0.0503,12.77919 0.11178,12.83832 0.13669,0.1314 1.96526,-0.31554 3.01306,-0.73645 z m -5.64932,-28.39313 c 2.38395,-0.11174 4.33271,0.16072 6.30616,0.88162 l 1.03218,0.37706 0.30294,-0.98072 c 0.39753,-1.28693 0.37186,-3.28934 -0.0567,-4.42347 -2.29821,-6.08208 -11.23444,-6.08208 -13.53265,0 -0.42659,1.12895 -0.45469,3.135 -0.0618,4.40712 l 0.29788,0.96436 1.74426,-0.56089 c 1.3442,-0.43225 2.25421,-0.58479 3.96765,-0.66508 z"
       id="path867-9-6"
       inkscape:connector-curvature="0"
       inkscape:export-xdpi="433.99875"
       inkscape:export-ydpi="433.99875" />
    <rect
       style="opacity:0.95;fill:none;fill-opacity:1;stroke:none;stroke-width:2.39937;stroke-linejoin:round;stroke-miterlimit:4;stroke-dasharray:none;stroke-opacity:1;filter:url(#filter984)"
       id="rect982"
       width="171.64934"
       height="154.10979"
       x="-386.33588"
       y="86.644432"
       inkscape:export-xdpi="433.99875"
       inkscape:export-ydpi="433.99875" />
    <rect
       style="opacity:0.95;fill:none;fill-opacity:1;stroke:none;stroke-width:2.39937;stroke-linejoin:round;stroke-miterlimit:4;stroke-dasharray:none;stroke-opacity:1;filter:url(#filter984-2)"
       id="rect982-5"
       width="171.64934"
       height="154.10979"
       x="-654.10651"
       y="293.61127"
       transform="matrix(2.4159459,0,0,0.78339444,927.14094,86.582125)"
       inkscape:export-xdpi="266"
       inkscape:export-ydpi="266" />
    <flowRoot
       xml:space="preserve"
       id="flowRoot869-6-0"
       style="font-style:normal;font-weight:normal;font-size:265.627px;line-height:1.25;font-family:sans-serif;letter-spacing:0px;word-spacing:0px;fill:#000000;fill-opacity:1;stroke:none;stroke-opacity:1"
       transform="matrix(0.26458333,0,0,0.26458333,89.190487,-87.175165)"
       inkscape:export-xdpi="433.99875"
       inkscape:export-ydpi="433.99875"><flowRegion
         id="flowRegion871-7-4"
         style="font-size:265.627px;stroke:none;stroke-opacity:1"><rect
           id="rect873-7-0"
           width="1096.0155"
           height="331.4563"
           x="-1767.767"
           y="928.06531"
           style="font-size:265.62667847px;stroke:none;stroke-opacity:1" /></flowRegion><flowPara
         id="flowPara875-3-2"
         style="font-style:normal;font-variant:normal;font-weight:normal;font-stretch:normal;font-size:146.667px;font-family:'Trebuchet MS';-inkscape-font-specification:'Trebuchet MS';stroke:none;stroke-opacity:1">Vulristics</flowPara></flowRoot>
    <path
       style="fill:#000000;stroke:none;stroke-width:0.130919"
       d="m 225.86477,108.57333 c -0.44322,-0.0188 -1.06744,-0.1171 -1.38717,-0.21852 -0.31975,-0.10148 -6.91111,-3.70231 -14.64753,-8.00195 -7.73641,-4.299635 -14.1117,-7.804878 -14.16733,-7.78941 -0.0556,0.01555 -0.58697,0.579018 -1.18077,1.252358 -5.18198,5.876082 -11.95588,10.784012 -19.01239,13.775082 -9.25267,3.92193 -18.82217,5.24789 -28.56705,3.9583 -14.81929,-1.96118 -28.31397,-10.24168 -36.56314,-22.43557 -1.87103,-2.765804 -2.75904,-4.316785 -3.99332,-6.974884 -1.59049,-3.425212 -2.037,-4.654899 -3.08846,-8.506239 -1.04033,-3.810504 -1.35665,-5.528115 -1.69959,-9.228795 -1.20658,-13.020323 2.97932,-26.686052 11.4253,-37.30002 4.99092,-6.272086 11.95221,-11.811476 18.88752,-15.029596 3.67315,-1.704438 4.34922,-1.94942 8.84207,-3.2040245 4.50382,-1.2577027 5.3553,-1.4311385 9.04758,-1.8430878 9.05029,-1.0097197 18.66516,0.5138354 27.35411,4.3344933 2.07031,0.910338 6.5452,3.417651 8.34685,4.676795 8.96961,6.268712 15.38299,14.440502 19.18659,24.447125 0.99771,2.624794 2.43814,8.149909 2.78411,10.67912 1.17395,8.581989 0.32972,17.052617 -2.48348,24.917711 l -0.39163,1.094979 14.38261,8.020828 c 15.13591,8.440905 14.82314,8.247829 15.74689,9.721032 0.49312,0.786412 0.67821,1.460736 0.65726,2.395839 -0.0152,0.691829 -0.16848,1.001085 -2.53674,5.118304 -2.9647,5.1542 -3.00477,5.20172 -4.87521,5.78253 -0.98168,0.30484 -1.44041,0.3842 -2.06746,0.35767 z m -55.70494,-8.256 c 14.24162,-5.489578 24.69567,-17.582756 27.89229,-32.265584 3.39716,-15.603773 -1.9317,-31.52123 -14.03143,-41.912405 -10.33582,-8.87635 -24.32819,-12.470351 -37.82274,-9.714949 -2.49185,0.508796 -5.97848,1.562839 -8.1562,2.465693 -7.63727,3.166325 -14.22625,8.303562 -19.12586,14.911912 -1.37272,1.851488 -3.96615,6.298974 -4.87088,8.353222 -3.43417,7.797248 -4.58244,16.393019 -3.26844,24.46688 0.36184,2.223488 1.57896,6.809507 2.31553,8.725047 6.65076,17.295295 23.75328,28.501014 42.53043,27.866354 2.03248,-0.0686 4.51921,-0.31084 6.24643,-0.60827 1.59287,-0.27425 6.78166,-1.70615 8.29083,-2.2879 z"
       id="path843-3-9-7"
       inkscape:connector-curvature="0"
       inkscape:export-xdpi="433.99875"
       inkscape:export-ydpi="433.99875" />
    <path
       style="fill:#ff0000;stroke:none;stroke-width:0.246232"
       d="m 128.27552,80.268135 v -6.235947 l 3.7885,-0.924875 c 3.76988,-0.920304 3.7878,-0.927937 3.64509,-1.55023 -0.0788,-0.34392 -0.27547,-1.465564 -0.43685,-2.492486 l -0.29341,-1.867174 -6.54513,-0.06427 -6.54508,-0.06427 -0.5588,-3.017888 c -1.41972,-7.667598 -2.11569,-11.647843 -2.0456,-11.699272 0.13272,-0.09746 4.30268,-0.856215 4.36331,-0.793951 0.0319,0.03263 0.41039,2.341014 0.84118,5.129546 0.43079,2.788528 0.84028,5.316852 0.90996,5.618485 l 0.12669,0.548427 4.80358,-0.06555 4.80357,-0.06544 0.59469,-2.154566 c 0.32712,-1.184994 1.00017,-2.919379 1.49571,-3.854186 0.49554,-0.934794 0.80397,-1.735473 0.68538,-1.779311 -0.1186,-0.04379 -2.30619,-0.877021 -4.8614,-1.851597 l -4.64586,-1.771946 -0.067,-6.184713 -0.0671,-6.184738 h 2.26438 2.2644 v 4.66187 4.661847 l 3.82966,1.497434 c 2.10635,0.823602 4.00395,1.496183 4.21688,1.494658 0.21295,-0.0014 0.85611,-0.464505 1.42925,-1.028848 l 1.04209,-1.026111 -0.52871,-1.448581 c -0.64854,-1.776894 -0.87706,-5.489747 -0.45751,-7.432773 0.87489,-4.051631 4.60805,-7.998646 8.92615,-9.437441 1.8966,-0.631951 5.17587,-0.764073 7.25681,-0.292385 4.88387,1.107051 8.84286,4.876242 10.10855,9.623971 0.56495,2.11918 0.35242,5.310851 -0.50189,7.537217 l -0.64797,1.688622 0.92102,0.906781 c 0.50654,0.498723 1.09583,0.90802 1.30952,0.909548 0.21364,0.0014 2.11185,-0.671056 4.21818,-1.494658 l 3.82966,-1.497434 v -4.661858 -4.66187 h 2.26438 2.26438 l -0.0671,6.173879 -0.0669,6.173867 -1.13009,0.455066 c -0.62154,0.250286 -2.76868,1.067791 -4.77142,1.816676 -2.00272,0.748887 -3.67683,1.394311 -3.72021,1.434308 -0.0435,0.03991 0.32836,0.85021 0.82616,1.800543 0.4978,0.95033 1.16584,2.67263 1.48461,3.827298 l 0.57946,2.09942 4.67236,0.06555 c 4.25647,0.05968 4.69341,0.02753 4.90895,-0.362142 0.13011,-0.235287 0.59709,-2.76365 1.03773,-5.618573 0.44063,-2.854937 0.82876,-5.217556 0.86249,-5.250271 0.0626,-0.06067 4.23074,0.694687 4.36349,0.790793 0.0777,0.0563 -0.75559,4.832482 -1.91543,10.978146 l -0.70625,3.742173 -6.53482,0.06436 -6.53482,0.06426 -0.29342,1.867174 c -0.16139,1.026939 -0.35841,2.150741 -0.43781,2.497328 -0.14412,0.629106 -0.13777,0.631774 3.64511,1.537325 l 3.78946,0.907122 v 6.248863 6.248872 h -2.26013 -2.26016 V 81.961163 77.4181 l -1.94618,-0.429017 c -1.07044,-0.235976 -2.19235,-0.482932 -2.49311,-0.548797 -0.41781,-0.09146 -0.63863,0.05083 -0.93568,0.60306 -1.43904,2.675378 -5.0996,5.897092 -8.56252,7.536051 -8.29747,3.927029 -18.08946,1.764999 -23.98338,-5.295459 -0.69685,-0.834767 -1.44194,-1.843022 -1.65578,-2.240592 -0.29707,-0.55226 -0.51786,-0.694574 -0.93567,-0.60306 -0.30081,0.06591 -1.42269,0.312821 -2.49311,0.548797 l -1.94624,0.429017 v 4.543063 4.543053 h -2.26013 -2.26015 z M 153.13708,65.935313 V 49.982238 l -1.19049,0.156895 c -1.81096,0.238631 -5.07215,1.910712 -6.94568,3.561178 -3.32464,2.928826 -5.16751,6.867481 -5.36853,11.473859 -0.27303,6.256586 2.37039,11.454166 7.51183,14.770066 1.71312,1.104832 5.22402,2.339328 5.80453,2.040961 0.10355,-0.0533 0.18834,-7.275684 0.18834,-16.049884 z m 8.17851,15.114213 c 3.76061,-1.510604 7.38057,-5.453458 8.82856,-9.61599 0.61258,-1.760933 0.67851,-2.290394 0.67902,-5.451136 2.9e-4,-3.133709 -0.068,-3.696737 -0.65377,-5.369732 -0.88623,-2.531312 -2.65267,-5.173067 -4.61485,-6.901624 -1.87966,-1.655868 -5.18716,-3.357991 -6.95548,-3.579416 l -1.19286,-0.14939 v 15.927095 c 0,8.759885 0.063,15.987566 0.13986,16.061538 0.17099,0.164392 2.45866,-0.394762 3.76952,-0.921345 z m -7.06765,-35.521581 c 2.98247,-0.139797 5.4205,0.201071 7.8894,1.10296 l 1.29132,0.471724 0.37898,-1.226941 c 0.49735,-1.610027 0.46523,-4.115171 -0.0709,-5.534037 -2.87521,-7.609062 -14.05499,-7.609062 -16.93019,0 -0.53369,1.412388 -0.56885,3.922081 -0.0774,5.513584 l 0.37267,1.206473 2.18218,-0.701706 c 1.68168,-0.540774 2.82017,-0.731608 4.96378,-0.832057 z"
       id="path867-9-6-5"
       inkscape:connector-curvature="0"
       inkscape:export-xdpi="433.99875"
       inkscape:export-ydpi="433.99875" />
    <rect
       style="opacity:0.95;fill:none;fill-opacity:1;stroke:none;stroke-width:2.39937;stroke-linejoin:round;stroke-miterlimit:4;stroke-dasharray:none;stroke-opacity:1;filter:url(#filter984-3)"
       id="rect982-3"
       width="171.64934"
       height="154.10979"
       x="409.7832"
       y="45.468914"
       inkscape:export-xdpi="433.99875"
       inkscape:export-ydpi="433.99875"
       transform="matrix(4.4941784,0,0,4.4941784,-1605.1373,-225.77258)" />
    <flowRoot
       xml:space="preserve"
       id="flowRoot869-6-0-5"
       style="font-style:normal;font-weight:normal;font-size:265.627px;line-height:1.25;font-family:sans-serif;letter-spacing:0px;word-spacing:0px;fill:#000000;fill-opacity:1;stroke:none;stroke-opacity:1"
       transform="matrix(0.33101029,0,0,0.33101029,654.49735,-227.42174)"
       inkscape:export-xdpi="433.99875"
       inkscape:export-ydpi="433.99875"><flowRegion
         id="flowRegion871-7-4-6"
         style="font-size:265.627px;stroke:none;stroke-opacity:1"><rect
           id="rect873-7-0-2"
           width="1096.0155"
           height="331.4563"
           x="-1767.767"
           y="928.06531"
           style="font-size:265.62667847px;stroke:none;stroke-opacity:1" /></flowRegion><flowPara
         id="flowPara875-3-2-9"
         style="font-style:normal;font-variant:normal;font-weight:normal;font-stretch:normal;font-size:146.667px;font-family:'Trebuchet MS';-inkscape-font-specification:'Trebuchet MS';stroke:none;stroke-opacity:1">Vulristics</flowPara></flowRoot>
    <flowRoot
       xml:space="preserve"
       id="flowRoot1057"
       style="font-style:normal;font-weight:normal;font-size:40px;line-height:1.25;font-family:sans-serif;letter-spacing:0px;word-spacing:0px;fill:#000000;fill-opacity:1;stroke:none"><flowRegion
         id="flowRegion1059"><rect
           id="rect1061"
           width="1933.4951"
           height="669.54175"
           x="-2631.7629"
           y="1120.3099" /></flowRegion><flowPara
         id="flowPara1063" /></flowRoot>
    <flowRoot
       xml:space="preserve"
       id="flowRoot1065"
       style="font-style:normal;font-weight:normal;font-size:40px;line-height:1.25;font-family:sans-serif;letter-spacing:0px;word-spacing:0px;fill:#000000;fill-opacity:1;stroke:none"><flowRegion
         id="flowRegion1067"><rect
           id="rect1069"
           width="1241.8563"
           height="3595.196"
           x="-1895.9301"
           y="921.43622" /></flowRegion><flowPara
         id="flowPara1071" /></flowRoot>
  </g>
</svg>
