<?xml version="1.0" encoding="UTF-8" standalone="no"?>
<!-- Created with Inkscape (http://www.inkscape.org/) -->

<svg
   xmlns:dc="http://purl.org/dc/elements/1.1/"
   xmlns:cc="http://creativecommons.org/ns#"
   xmlns:rdf="http://www.w3.org/1999/02/22-rdf-syntax-ns#"
   xmlns:svg="http://www.w3.org/2000/svg"
   xmlns="http://www.w3.org/2000/svg"
   xmlns:sodipodi="http://sodipodi.sourceforge.net/DTD/sodipodi-0.dtd"
   xmlns:inkscape="http://www.inkscape.org/namespaces/inkscape"
   version="1.1"
   id="svg210"
   width="1444.1278"
   height="320.72931"
   viewBox="0 0 1444.1278 320.72931"
   sodipodi:docname="vulristics_line.svg"
   inkscape:version="0.92.5 (2060ec1f9f, 2020-04-08)"
   inkscape:export-filename="/home/alexander/Desktop/AVLEONOV/PycharmProjects/vulristics/reports/icons/vulristics.png"
   inkscape:export-xdpi="53.278572"
   inkscape:export-ydpi="53.278572">
  <metadata
     id="metadata216">
    <rdf:RDF>
      <cc:Work
         rdf:about="">
        <dc:format>image/svg+xml</dc:format>
        <dc:type
           rdf:resource="http://purl.org/dc/dcmitype/StillImage" />
        <dc:title></dc:title>
      </cc:Work>
    </rdf:RDF>
  </metadata>
  <defs
     id="defs214" />
  <sodipodi:namedview
     pagecolor="#ffffff"
     bordercolor="#666666"
     borderopacity="1"
     objecttolerance="10"
     gridtolerance="10"
     guidetolerance="10"
     inkscape:pageopacity="0"
     inkscape:pageshadow="2"
     inkscape:window-width="1366"
     inkscape:window-height="719"
     id="namedview212"
     showgrid="false"
     inkscape:zoom="0.40535204"
     inkscape:cx="714.60659"
     inkscape:cy="42.583889"
     inkscape:window-x="0"
     inkscape:window-y="337"
     inkscape:window-maximized="1"
     inkscape:current-layer="svg210" />
  <path
     style="fill:#000000;stroke-width:0.36090225"
     d="M 151.38368,319.08656 C 105.92987,316.24099 63.920928,294.46459 35.88003,259.21228 31.93056,254.24711 24.93682,243.89222 21.99479,238.6539 17.32748,230.34369 12.33975,218.73537 9.77325,210.20983 4.1777998,191.62253 2.2161098,179.1083 2.2101098,161.96218 c -0.007,-20.14292 3.54608,-38.5692 11.1348102,-57.74435 11.18317,-28.257524 29.36821,-51.983761 54.128988,-70.622712 11.18908,-8.422702 25.79504,-16.496034 38.396432,-21.223339 7.46338,-2.7998182 26.93161,-8.0753737 33.78846,-9.1561028 34.79444,-5.4840245 71.58653,0.72022 101.55759,17.1256448 12.34773,6.758843 19.7959,11.846018 29.08458,19.86506 15.82008,13.657697 27.90763,29.198531 37.29622,47.951352 5.93854,11.861587 8.28487,18.260817 11.97574,32.661587 3.68745,14.38738 4.46801,20.82987 4.48198,36.99248 0.006,7.35843 -0.16544,13.27595 -0.46106,15.8797 -1.36475,12.021 -3.94495,23.93549 -7.45923,34.44432 -1.06607,3.18795 -1.82682,5.89402 -1.6905,6.01348 0.13631,0.11945 15.35159,8.62813 33.81174,18.90818 48.95866,27.26397 52.49262,29.33398 55.20501,32.33629 2.1639,2.39518 3.47185,5.56779 3.50574,8.50368 0.0364,3.15407 -0.0798,3.4104 -7.08441,15.62498 -7.91985,13.81068 -9.21741,15.67431 -11.85878,17.03267 -4.82133,2.47943 -10.99221,3.04291 -14.68486,1.3409 -2.48748,-1.14652 -14.85867,-7.9086 -49.0827,-26.8285 -14.78797,-8.17517 -29.18375,-16.11366 -31.99063,-17.64109 l -5.10341,-2.77716 -2.29296,2.44594 c -12.58288,13.42239 -21.24488,21.02724 -32.613,28.63282 -12.65739,8.4681 -24.35684,14.17949 -39.1579,19.11591 -20.52055,6.84397 -40.79704,9.55214 -61.71428,8.24264 z m 17.32331,-26.66609 c 12.27693,-0.69647 17.90904,-1.69166 31.55761,-5.57612 8.96648,-2.5519 14.78588,-4.81701 22.75818,-8.85825 35.34877,-17.91865 61.0495,-50.13543 70.36572,-88.20594 2.77339,-11.3333 3.62043,-18.74056 3.61444,-31.60746 -0.005,-10.96164 -0.39129,-15.30011 -2.18462,-24.54135 C 290.85977,113.23265 282.15084,94.439087 268.8959,77.691574 264.56001,72.213219 254.06602,61.66991 248.64684,57.347354 217.49163,32.496729 177.16899,22.764969 138.0303,30.650341 c -6.39657,1.288729 -17.27902,4.496445 -23.24373,6.851323 -12.29286,4.853255 -24.340822,11.847448 -35.092802,20.37238 -5.58498,4.428175 -16.46157,15.239814 -20.84427,20.719789 C 50.60445,88.903163 41.67357,104.59414 37.5696,115.98131 c -7.80917,21.66785 -10.18702,43.11467 -7.10581,64.09032 0.76487,5.20698 3.20294,15.57721 5.2202,22.20397 6.01319,19.75349 19.13991,40.24625 35.230748,55.00044 22.88693,20.98574 52.294082,33.4344 82.995252,35.13364 7.22686,0.39999 7.9272,0.40049 14.797,0.0108 z M 454.0406,238.71925 c -0.2252,-0.36439 -70.59677,-191.650386 -70.59677,-191.898155 0,-0.0919 6.45564,-0.16363 14.34586,-0.1594 l 14.34587,0.008 24.3609,69.802775 c 13.39849,38.39159 24.45744,69.69189 24.57542,69.55623 0.18384,-0.21134 32.00535,-94.61009 43.18084,-128.096166 l 3.76392,-11.278189 h 13.86395 c 7.62521,0 13.86186,0.12181 13.85922,0.27068 -0.004,0.148869 -15.39991,43.389426 -34.21617,96.090115 l -34.21136,95.81955 -6.53955,0.0983 c -3.59672,0.054 -6.6262,-0.042 -6.73213,-0.21337 z m 122.48593,0.0604 c -8.07447,-1.22438 -12.42669,-2.48386 -17.26657,-4.99671 -12.99811,-6.74857 -20.44587,-19.48735 -22.06073,-37.73318 -0.22387,-2.52931 -0.36697,-22.37089 -0.36884,-51.14025 l -0.003,-47.007486 h 12.27068 12.27068 v 44.842066 c 0,28.98581 0.13757,46.29748 0.38678,48.95795 1.35915,14.50996 7.2328,22.60712 18.66889,25.7362 2.31588,0.63367 3.7977,0.76025 8.91302,0.76137 5.46673,0.001 6.51707,-0.10072 9.63819,-0.93533 6.74064,-1.8025 12.72151,-5.2001 17.92507,-10.18289 3.49978,-3.35125 5.75174,-6.35816 7.27067,-9.70814 l 1.07585,-2.37271 V 146.45127 97.902024 h 12.27067 12.27068 v 69.293196 69.29323 h -12.27068 -12.27067 l -0.0191,-9.47368 c -0.0181,-9.02392 -0.048,-9.43133 -0.63158,-8.58144 -0.33694,0.49074 -1.34346,1.80264 -2.23669,2.91533 -6.2583,7.79593 -19.86807,15.29748 -31.03759,17.10758 -3.11441,0.50471 -12.28024,0.70505 -14.797,0.32341 z m 148.15038,-0.002 c -13.45209,-1.59945 -21.52082,-4.73698 -28.06975,-10.91489 -5.7656,-5.43897 -9.11871,-12.32816 -10.55712,-21.69033 -0.44997,-2.92859 -0.5271,-15.23081 -0.5289,-84.3609 l -0.002,-80.932189 h 12.26516 12.26511 l 0.0958,79.127709 0.0957,79.12782 0.85313,2.52631 c 1.17254,3.47215 2.23305,5.46841 4.16525,7.84036 3.27425,4.01949 9.38169,7.01576 15.10192,7.4089 l 2.79699,0.19223 v 10.95595 10.95595 l -3.69925,-0.0541 c -2.03459,-0.0297 -4.18647,-0.112 -4.78195,-0.1828 z M 962.15064,238.45 c -5.27,-0.71574 -10.27014,-1.84828 -14.97754,-3.39244 -4.3776,-1.43599 -11.0795,-4.29895 -13.8118,-5.90016 l -1.6263,-0.95311 2.9902,-8.03849 c 4.3886,-11.79777 5.5189,-14.76355 5.6928,-14.93749 0.086,-0.0858 1.7626,0.8555 3.7263,2.09179 4.6721,2.94152 12.85294,7.07583 16.87414,8.52755 5.4254,1.95872 9.8537,2.7041 14.666,2.46867 9.5828,-0.46882 15.6613,-3.50791 18.545,-9.27213 1.663,-3.32409 2.13106,-5.80881 1.96296,-10.41977 -0.1293,-3.54679 -0.23766,-4.02336 -1.51266,-6.65396 -2.9243,-6.03358 -9.2441,-11.10938 -20.2688,-16.27927 -17.384,-8.15197 -23.97584,-11.98439 -29.47884,-17.13874 -3.8735,-3.6281 -6.2544,-6.74576 -8.5586,-11.20709 -2.8524,-5.52298 -3.4513,-8.319 -3.4402,-16.06015 0.01,-5.58805 0.1227,-6.91484 0.8207,-9.49044 2.154,-7.94791 6.552,-13.98102 13.6207,-18.6843 6.7912,-4.518687 14.37934,-6.896645 24.70074,-7.740694 9.342,-0.763949 18.4167,0.55582 30.31576,4.408936 5.0011,1.619418 12.658,4.506278 13.09,4.935278 0.2231,0.22153 -3.3939,12.72331 -6.0866,21.03795 l -0.5456,1.68478 -2.7722,-1.98897 c -5.7645,-4.13586 -10.82646,-6.61701 -17.03896,-8.35172 -3.0948,-0.86415 -4.0259,-0.95726 -9.5639,-0.9564 -5.7805,7.3e-4 -6.3024,0.0591 -9.0226,1.00687 -3.8687,1.34787 -6.3636,2.89412 -8.6645,5.37006 -2.3827,2.56392 -3.1926,4.78163 -3.1323,8.57725 0.08,5.00428 1.6229,8.95291 4.9057,12.55049 3.4035,3.72993 5.8642,5.16432 19.4337,11.32854 14.21186,6.45601 18.98766,9.06884 24.63156,13.47592 7.1725,5.60067 11.4415,12.07206 13.6228,20.65047 0.7104,2.79432 0.8048,4.05083 0.7806,10.3965 -0.025,6.54816 -0.113,7.53663 -0.9479,10.65076 -4.3336,16.16324 -18.0022,26.24675 -38.61536,28.48714 -4.7562,0.51693 -15.8984,0.41621 -20.315,-0.18363 z m 128.12026,0.306 c -2.6974,-0.37526 -7.1113,-1.72059 -9.8565,-3.00424 -11.8463,-5.53912 -19.8026,-16.20733 -22.6911,-30.42531 -0.5318,-2.6176 -0.613,-7.66519 -0.7334,-45.61995 l -0.1354,-42.67669 h -7.9234 -7.9234 v -9.56391 -9.563876 h 7.9399 7.9398 V 83.311448 68.720853 l 1.8948,-0.71546 c 1.0421,-0.393509 6.5744,-2.516447 12.294,-4.717655 5.7197,-2.201208 10.4701,-4.002196 10.5564,-4.002196 0.086,0 0.1571,8.688712 0.1571,19.308251 v 19.308241 h 18.9474 18.9473 v 9.563866 9.56391 h -18.9473 -18.9474 v 38.16541 c 0,31.9536 0.09,38.75282 0.54,41.77444 2.1242,14.25149 8.6434,20.57633 22.0143,21.35791 5.8745,0.34339 12.1512,-0.77904 18.5393,-3.31533 1.6989,-0.6745 3.1277,-1.18755 3.1752,-1.1401 0.047,0.0475 0.8254,4.54651 1.7288,9.99791 0.9034,5.4514 1.7207,10.25524 1.8161,10.67519 0.1598,0.70293 -0.1197,0.82623 -3.5204,1.55296 -5.133,1.09694 -11.8755,2.08252 -17.3377,2.53432 -4.4034,0.36425 -16.1802,0.44294 -18.4765,0.12348 z m 185.8775,-0.15465 c -26.6976,-3.42138 -47.3979,-22.22179 -53.5876,-48.66925 -2.4962,-10.66622 -3.0061,-25.30439 -1.2716,-36.50669 4.1833,-27.01799 20.6273,-47.02052 44.8853,-54.598687 13.2217,-4.130426 29.0064,-4.754416 41.2422,-1.630339 8.8839,2.268258 21.3199,7.629386 25.7126,11.084676 l 0.9076,0.71393 -5.799,8.25803 c -3.1894,4.54192 -5.9343,8.40156 -6.0997,8.57699 -0.1698,0.18016 -1.0818,-0.25443 -2.0957,-0.99865 -3.9322,-2.88649 -12.2194,-6.2163 -19.5551,-7.85722 -5.036,-1.1265 -15.7404,-1.22378 -20.5624,-0.18688 -7.2889,1.56742 -13.2639,4.68293 -18.5421,9.66829 -9.6375,9.10302 -14.3868,21.13637 -15.2243,38.5743 -0.7159,14.90509 2.705,28.63765 9.3232,37.42612 8.1212,10.78425 22.0227,16.62577 37.7966,15.88238 9.4186,-0.44387 18.3339,-3.62365 27.7684,-9.90396 2.2712,-1.51184 4.1843,-2.5986 4.2515,-2.41502 0.067,0.18358 2.2211,4.79995 4.7866,10.2586 l 4.6645,9.92481 -0.7957,0.62143 c -1.4823,1.15782 -9.7987,5.2505 -13.3469,6.56839 -6.7238,2.49736 -14.3127,4.20516 -22.6367,5.09414 -5.3265,0.56886 -17.7674,0.63422 -21.8217,0.11465 z m 109.1601,0.20641 c -0.4963,-0.0836 -2.3639,-0.33409 -4.1504,-0.55676 -4.122,-0.51377 -10.4676,-2.06386 -15.3383,-3.74683 -3.9984,-1.38155 -13.7143,-5.88444 -13.7143,-6.35597 0,-0.29198 8.3189,-22.78391 8.5096,-23.0074 0.061,-0.0713 1.7034,0.87413 3.6501,2.10097 5.1143,3.22306 14.4247,7.76162 18.8488,9.18824 5.0781,1.63755 8.9616,2.17216 13.6004,1.87226 11.3166,-0.73164 17.5752,-5.29087 19.4574,-14.17415 2.4008,-11.33095 -3.9376,-20.05758 -20.2167,-27.83421 -12.269,-5.86099 -20.9081,-10.31884 -23.8703,-12.31733 -12.7812,-8.62292 -19.2533,-19.61225 -19.2533,-32.69109 0,-13.55911 6.5473,-24.18742 18.7627,-30.45799 12.2558,-6.291303 27.2618,-7.340972 44.1238,-3.086456 6.803,1.716488 20.3721,6.588656 20.2409,7.267826 -0.3251,1.68401 -6.807,22.12624 -7.0158,22.12624 -0.154,0 -1.6302,-0.9682 -3.2806,-2.15156 -10.2242,-7.33104 -22.2568,-10.48754 -32.3392,-8.48347 -5.8655,1.16589 -11.4483,4.89674 -13.407,8.95951 -2.3108,4.79345 -0.8628,12.47918 3.3106,17.5717 3.2944,4.01996 5.5994,5.39079 20.3071,12.07694 12.1378,5.51782 15.3659,7.18021 20.5715,10.59381 4.9346,3.23592 11.3133,9.62796 13.5153,13.54372 3.3976,6.04174 4.8317,11.99867 4.8317,20.0698 0,11.30865 -3.1444,19.63484 -10.03,26.55877 -4.5645,4.58988 -9.7659,7.68681 -16.9241,10.07667 -6.4636,2.15795 -10.8222,2.77008 -20.626,2.89676 -4.7639,0.0616 -9.0677,0.0435 -9.5639,-0.04 z M 763.8348,167.19526 V 97.902064 h 12.27068 12.27067 l 0.0123,10.917256 0.0123,10.91729 1.16077,-1.94872 c 3.42944,-5.75744 8.64441,-11.61771 13.27511,-14.91777 9.58534,-6.830955 21.57538,-9.074762 36.24657,-6.783115 2.77894,0.43407 5.67569,0.8809 6.43719,0.992939 0.76151,0.11205 1.45422,0.3853 1.53939,0.60725 0.12271,0.319759 -9.33906,23.128946 -9.79921,23.622626 -0.0664,0.0713 -0.57676,-0.19255 -1.13403,-0.58628 -4.12565,-2.91483 -10.01197,-4.77977 -15.05598,-4.77013 -7.99355,0.0153 -14.51819,3.02898 -20.78916,9.60248 -5.51794,5.78415 -8.93294,12.30612 -10.93696,20.88749 -0.74487,3.18964 -0.76064,4.02942 -0.87439,46.64662 l -0.11582,43.39849 h -12.25959 -12.25956 v -69.29323 z m 112.9624,10.28571 v -59.00751 h -9.38345 -9.38346 V 108.18774 97.902064 h 21.83458 21.83459 v 69.293196 69.29323 H 889.24833 876.7972 Z m 288.7218,0 v -59.00751 h -9.5639 -9.5639 V 108.18774 97.902064 h 21.8346 21.8346 v 69.293196 69.29323 h -12.2707 -12.2707 z M 886.00021,75.040876 c -4.73677,-1.562198 -8.51484,-5.320474 -9.91918,-9.86719 -3.60588,-11.674448 6.52313,-22.452737 18.23433,-19.40316 4.22375,1.099859 7.94108,4.227306 10.00364,8.416231 1.09465,2.223118 1.16993,2.620418 1.16993,6.173514 0,3.523997 -0.0832,3.973146 -1.15543,6.236654 -1.54895,3.270027 -4.30105,6.124854 -7.29917,7.571712 -2.10283,1.014779 -2.78267,1.156459 -5.98149,1.246619 -2.28541,0.0644 -4.13846,-0.0729 -5.05263,-0.37438 z m 288.14759,-0.179099 c -10.5787,-3.489557 -13.8648,-17.244353 -5.999,-25.110175 6.0869,-6.086904 15.5239,-6.037794 21.5416,0.11211 1.1475,1.172658 2.5527,3.082077 3.1228,4.243155 0.9594,1.953788 1.0366,2.420778 1.0366,6.269014 0,3.947956 -0.058,4.276056 -1.1532,6.496234 -1.477,2.994987 -4.3213,5.846024 -7.2903,7.307672 -2.0455,1.006979 -2.7443,1.157599 -5.7836,1.246489 -2.6042,0.0762 -3.9549,-0.0631 -5.4749,-0.564499 z"
     id="path240"
     inkscape:connector-curvature="0"
     sodipodi:nodetypes="sssscsssssscsccccscccscsccscssccsccccsssssscssscccsccscscscscccccscccccscccscccccccccccccsscccccccccccscsccccccscccscccscccccccccsscccsccccccccccccscccscccccccccccsscccccccscsccscccccccssscccccsccccsccccccscccscscccccscssccscccccccsccccccccccccscccccscsccccccccccccccccccccccccccccccccsscsccccccccscccc" />
  <path
     style="fill:#ff0000;stroke-width:0.36090225"
     d="m 83.621058,223.46938 0.0935,-18.79354 10.61405,-2.6576 c 7.064552,-1.76886 10.827382,-2.87635 11.251962,-3.31172 0.61035,-0.62586 0.58677,-0.95817 -0.54573,-7.69171 l -1.18363,-7.0376 -5.19615,-0.10179 c -2.857882,-0.056 -11.764362,-0.21839 -19.792182,-0.3609 l -14.59604,-0.25911 -2.07148,-11.18797 c -3.34288,-18.0547 -5.842788,-32.66809 -5.62567,-32.8852 0.33958,-0.33959 12.50197,-2.44943 12.74115,-2.21025 0.12315,0.12315 1.0986,5.71512 2.16767,12.4266 1.06907,6.71147 2.29819,14.27336 2.73138,16.80419 l 0.78761,4.6015 h 9.26355 c 5.09496,0 11.70896,-0.10584 14.697792,-0.23521 l 5.43422,-0.23521 0.97436,-3.62584 c 1.41079,-5.24995 2.85461,-9.18704 5.26965,-14.36961 1.17157,-2.51413 2.12895,-4.78781 2.12752,-5.05263 -0.002,-0.30128 -5.30346,-2.49054 -14.16542,-5.84926 -7.789542,-2.95226 -14.264092,-5.46956 -14.387882,-5.59398 -0.12379,-0.12442 -0.31984,-8.54953 -0.43566,-18.72247 l -0.21059,-18.496207 h 6.65703 6.657042 l 0.0944,14.104367 0.0944,14.10439 8.24091,3.20568 c 12.29806,4.7839 15.57025,5.88411 16.67529,5.60676 0.52227,-0.13108 2.32286,-1.57162 4.00131,-3.2012 l 3.05175,-2.96288 -1.10087,-2.9973 c -1.7306,-4.71187 -2.31799,-8.74084 -2.3254,-15.95007 -0.006,-5.50128 0.0996,-6.68813 0.81616,-9.203 2.17373,-7.628942 7.722,-15.336034 14.9744,-20.800879 3.2671,-2.461828 9.86787,-5.795784 13.04991,-6.591313 7.34657,-1.836709 16.46233,-1.698399 23.25453,0.352839 16.57771,5.006465 28.54621,20.40903 28.53281,36.719593 -0.002,2.73853 -0.82659,8.94808 -1.46981,11.07163 -0.21043,0.69474 -0.97645,2.87137 -1.70227,4.83697 l -1.31966,3.57381 2.51761,2.28346 c 3.74665,3.39819 3.89007,3.42922 8.452,1.82857 2.09549,-0.73524 7.46411,-2.76148 11.93028,-4.50274 l 8.1203,-3.16595 0.0944,-14.15638 0.0944,-14.156357 h 6.9078 6.9078 l -0.23529,3.845597 c -0.12942,2.11509 -0.2353,10.46755 -0.2353,18.56104 v 14.71544 l -5.50376,2.15587 c -3.02707,1.18572 -9.4827,3.64895 -14.34586,5.47383 -4.86316,1.82489 -8.97595,3.44423 -9.13953,3.59856 -0.16359,0.15431 0.83357,2.69651 2.21591,5.64931 2.61528,5.5865 3.66184,8.40092 5.30382,14.26308 l 0.97496,3.48082 6.90888,0.25604 c 3.79989,0.14082 10.13092,0.19852 14.06897,0.12821 6.8843,-0.12291 7.18505,-0.15869 7.80844,-0.92898 0.76173,-0.94124 1.48307,-4.61303 3.99032,-20.31163 2.0218,-12.65904 2.01599,-12.63158 2.67089,-12.63158 0.78143,0 12.17456,2.10505 12.35167,2.28215 0.25402,0.25403 -5.00504,30.02402 -7.48661,42.3795 l -0.38055,1.89474 -9.0872,0.0508 c -4.99795,0.0279 -13.86967,0.14973 -19.71491,0.27068 l -10.62773,0.21991 -1.17775,6.85715 c -0.64776,3.77143 -1.18408,7.05443 -1.19182,7.29557 -0.0256,0.79678 1.51039,1.29163 12.07615,3.89064 l 10.46616,2.57451 0.0935,18.83392 0.0934,18.83393 h -6.86036 -6.86036 v -13.81155 -13.81155 l -7.19759,-1.56074 c -3.95868,-0.85841 -7.37038,-1.45394 -7.58158,-1.32342 -0.21119,0.13052 -1.26051,1.56685 -2.33183,3.19184 -8.69846,13.19399 -24.45773,23.40477 -40.56923,26.28569 -5.91688,1.05801 -14.85128,1.06071 -20.69969,0.006 -11.21376,-2.02181 -21.80376,-7.23523 -30.39157,-14.96168 -3.08275,-2.77355 -7.79763,-8.27967 -10.1616,-11.86689 -0.87293,-1.32462 -1.88284,-2.50226 -2.24425,-2.61697 -0.36141,-0.11471 -3.8173,0.49517 -7.67974,1.35527 l -7.02262,1.56385 -0.0945,13.77495 -0.0945,13.77495 h -6.675622 -6.67562 z m 74.667602,1.65069 c 0.12555,-1.98496 0.24736,-23.78797 0.27067,-48.45113 0.0337,-35.66176 -0.05,-44.83952 -0.40873,-44.82951 -1.49163,0.0416 -6.21221,1.12477 -8.21053,1.8839 -17.21957,6.54149 -28.73633,20.38561 -31.58882,37.97245 -0.68197,4.20459 -0.68197,13.14023 0,17.34483 1.91886,11.83058 7.55975,21.78431 16.62349,29.33328 4.00369,3.33457 7.93653,5.7579 12.07811,7.44229 3.97331,1.61594 8.95872,3.09191 10.10527,2.99174 0.87999,-0.0769 0.90788,-0.16787 1.13054,-3.68785 z m 21.9672,1.79621 c 13.31641,-4.20544 25.38103,-16.82865 30.34609,-31.7511 l 1.2008,-3.60902 0.13238,-10.10526 c 0.15092,-11.52059 -0.0233,-12.89262 -2.41163,-18.98947 -2.47838,-6.3268 -6.51359,-12.49642 -11.41999,-17.46056 -6.23205,-6.3054 -18.06863,-12.51919 -24.52434,-12.87442 l -2.16542,-0.11916 0.11473,47.79883 c 0.0664,27.6862 0.25256,48.05637 0.44229,48.41089 0.29772,0.55628 0.55031,0.56904 2.77249,0.14006 1.34471,-0.2596 3.82538,-0.90795 5.5126,-1.44079 z M 145.5625,121.58188 c 7.2886,-2.34606 10.77541,-2.86097 19.53546,-2.88487 8.75138,-0.0239 12.12658,0.47568 19.45964,2.88015 2.6637,0.87341 4.95433,1.58803 5.09028,1.58803 0.44398,0 1.79154,-5.16081 2.18251,-8.35848 0.42844,-3.5041 0.001,-8.85838 -0.91433,-11.45262 -1.306,-3.701608 -3.26336,-6.730125 -6.32271,-9.782842 -3.51408,-3.506447 -5.89038,-5.023385 -10.37856,-6.625223 -3.05911,-1.091799 -3.35559,-1.128349 -9.11683,-1.123879 -5.58434,0.004 -6.13454,0.0674 -8.8421,1.013559 -5.41569,1.892518 -9.46047,4.685925 -12.78297,8.828211 -2.06018,2.568487 -4.04636,6.509664 -4.76549,9.456164 -0.60884,2.49462 -0.60445,10.43999 0.007,12.63157 1.24938,4.47823 1.54843,5.41354 1.73087,5.41354 0.10908,0 2.41184,-0.71249 5.11725,-1.58331 z"
     id="path238"
     inkscape:connector-curvature="0"
     sodipodi:nodetypes="ccsscccscscssccscccccssscccccsccccccscsccccsccccccccscccccccsscssccccscscscccccccsccscscsccccccccsccccscccsccscscccccsccssccsscscccscc" />
</svg>
