<?xml version="1.0" encoding="UTF-8" standalone="no"?>
<!-- Created with Inkscape (http://www.inkscape.org/) -->

<svg
   width="210mm"
   height="297mm"
   viewBox="0 0 210 297"
   version="1.1"
   id="svg8"
   inkscape:version="1.2.2 (b0a8486541, 2022-12-01)"
   sodipodi:docname="arb_file_writing.svg"
   xml:space="preserve"
   xmlns:inkscape="http://www.inkscape.org/namespaces/inkscape"
   xmlns:sodipodi="http://sodipodi.sourceforge.net/DTD/sodipodi-0.dtd"
   xmlns="http://www.w3.org/2000/svg"
   xmlns:svg="http://www.w3.org/2000/svg"
   xmlns:rdf="http://www.w3.org/1999/02/22-rdf-syntax-ns#"
   xmlns:cc="http://creativecommons.org/ns#"
   xmlns:dc="http://purl.org/dc/elements/1.1/"><defs
     id="defs2" /><sodipodi:namedview
     id="base"
     pagecolor="#ffffff"
     bordercolor="#666666"
     borderopacity="1.0"
     inkscape:pageopacity="0.0"
     inkscape:pageshadow="2"
     inkscape:zoom="0.70710678"
     inkscape:cx="488.61079"
     inkscape:cy="335.87572"
     inkscape:document-units="mm"
     inkscape:current-layer="layer1"
     showgrid="false"
     inkscape:window-width="1920"
     inkscape:window-height="1032"
     inkscape:window-x="0"
     inkscape:window-y="25"
     inkscape:window-maximized="1"
     inkscape:showpageshadow="2"
     inkscape:pagecheckerboard="0"
     inkscape:deskcolor="#d1d1d1" /><metadata
     id="metadata5"><rdf:RDF><cc:Work
         rdf:about=""><dc:format>image/svg+xml</dc:format><dc:type
           rdf:resource="http://purl.org/dc/dcmitype/StillImage" /><dc:title /></cc:Work></rdf:RDF></metadata><g
     inkscape:label="Layer 1"
     inkscape:groupmode="layer"
     id="layer1"><path
       style="fill:#ff0000;stroke-width:0.468028"
       d="m 36.340363,187.25525 c -0.428098,-0.4281 -0.561635,-10.10577 -0.561635,-40.70206 0,-45.89265 -0.565084,-40.86902 4.658721,-41.41501 l 2.829755,-0.29577 0.0071,-5.900699 c 0.0035,-3.245383 0.183739,-6.179193 0.399548,-6.51958 1.509126,-2.380166 17.804089,-1.876067 27.675029,0.856151 7.101258,1.965586 16.33878,6.076739 22.465394,9.998208 2.485486,1.59089 2.614458,1.62101 3.74422,0.87436 13.223465,-8.739107 27.535015,-13.234432 42.039455,-13.204801 5.85174,0.01203 8.87432,0.481348 9.50503,1.476082 0.21581,0.340387 0.39563,3.274197 0.39956,6.51958 l 0.007,5.900699 2.82974,0.29577 c 5.22391,0.546 4.65872,-4.4828 4.65872,41.45131 0,35.52835 -0.083,40.24562 -0.71758,40.77226 -0.58297,0.48382 -1.92196,0.44523 -7.13744,-0.20571 -15.74207,-1.96471 -31.8505,-1.96869 -46.86796,-0.0124 -5.333774,0.69512 -6.300122,0.69622 -11.700714,0.0142 -15.290035,-1.93324 -33.396222,-1.951 -46.605308,-0.0458 -5.781548,0.83392 -6.916776,0.85522 -7.628876,0.1431 z M 48.1815,182.10873 c 5.509788,-0.63494 28.938116,-0.83039 34.868166,-0.29089 l 3.510226,0.31937 -4.212261,-2.05718 c -2.316748,-1.13144 -6.213096,-2.69516 -8.658552,-3.47494 -8.204627,-2.61617 -10.745392,-2.99621 -20.515786,-3.06865 -7.260691,-0.0538 -9.132342,-0.19865 -9.470419,-0.73281 -0.238806,-0.37731 -0.424455,-14.30143 -0.428505,-32.14067 -0.0053,-24.86756 -0.130017,-31.47359 -0.592202,-31.46855 -0.321769,0.004 -1.058916,0.13338 -1.638099,0.2886 l -1.053079,0.28221 v 36.73777 36.73778 l 1.521102,-0.26937 c 0.836597,-0.14824 3.837832,-0.53638 6.669409,-0.86267 z m 104.60448,-35.65782 v -36.68569 l -1.05306,-0.28221 c -0.57918,-0.15514 -1.31633,-0.28508 -1.6381,-0.2886 -0.46222,-0.005 -0.58654,6.60099 -0.5922,31.46855 -0.004,17.83924 -0.1897,31.76336 -0.42853,32.14067 -0.33806,0.53416 -2.20971,0.67899 -9.47041,0.73281 -9.77038,0.0725 -12.31116,0.45248 -20.51579,3.06865 -2.44546,0.77978 -6.34179,2.34615 -8.65854,3.48085 l -4.21224,2.06308 3.27618,-0.32525 c 5.81746,-0.57757 31.39944,-0.22386 36.74028,0.508 2.70287,0.37038 5.28289,0.70299 5.73336,0.73911 0.77365,0.0621 0.81905,-1.96821 0.81905,-36.61997 z m -58.503618,-1.42542 v -36.239 L 90.88915,106.67301 C 86.468209,103.91939 78.633871,100.20646 73.94147,98.640954 66.716352,96.230477 54.070034,94.508995 49.662111,95.335925 l -1.714622,0.321665 v 36.78574 36.78574 l 2.750295,-0.28745 c 5.889647,-0.61559 16.308442,0.86751 24.395382,3.47269 4.345763,1.39994 14.287707,5.96205 17.083075,7.83899 0.772243,0.5185 1.562034,0.95815 1.755113,0.97696 0.193061,0.0188 0.351008,-16.27333 0.351008,-36.20477 z m 7.512838,34.58607 c 6.63307,-4.02937 16.2222,-7.80035 23.69579,-9.31848 4.92462,-1.00035 12.98614,-1.64335 16.55078,-1.32012 l 2.78771,0.25278 V 132.44913 95.672529 l -2.17849,-0.326686 c -4.91723,-0.737385 -16.61919,0.903679 -24.03112,3.370087 -4.5216,1.50461 -12.21569,5.17113 -16.64603,7.93244 l -3.479216,2.1685 v 36.22382 c 0,19.92308 0.13037,36.2238 0.289803,36.2238 0.159381,0 1.514243,-0.74382 3.010773,-1.65293 z"
       id="path21"
       inkscape:connector-curvature="0"
       inkscape:export-xdpi="62.84"
       inkscape:export-ydpi="62.84"
       inkscape:export-filename="../arb_file_writing.png" /><path
       style="fill:#ff0000;fill-opacity:1;stroke-width:0.0541934"
       d="m 73.406511,158.775 c 0.348532,-1.08274 3.810254,-11.42245 3.831251,-11.44345 0.01061,-0.0106 1.846373,1.8096 4.080494,4.04388 2.234139,2.23428 4.049148,4.06233 4.033352,4.06233 -0.01592,0 -2.442236,0.8075 -5.392101,1.79445 -2.949883,0.98694 -5.682418,1.89732 -6.072308,2.02305 l -0.708863,0.22862 z m 9.914668,-9.46117 -4.064309,-4.06457 14.239239,-14.23926 14.239261,-14.23924 4.07803,4.07804 4.07803,4.07803 -14.2257,14.22578 c -7.824149,7.82419 -14.237984,14.2258 -14.252984,14.2258 -0.01415,0 -1.856208,-1.82908 -4.091567,-4.06458 z M 113.8728,118.84158 c -2.21312,-2.21355 -4.02385,-4.0558 -4.02385,-4.09389 0,-0.038 0.70529,-0.77567 1.56731,-1.6391 1.72757,-1.73035 1.82555,-1.80373 2.41591,-1.8087 0.64412,-0.005 0.50558,-0.12294 4.10149,3.47871 3.2779,3.28311 3.28777,3.29369 3.37947,3.61341 0.10985,0.3832 0.0815,0.73578 -0.0863,1.07112 -0.0752,0.15018 -0.68189,0.80127 -1.69533,1.81918 -0.86799,0.87184 -1.59094,1.58487 -1.60652,1.58454 -0.0159,-4.1e-4 -1.83907,-1.81172 -4.05219,-4.02527 z"
       id="path304" /></g></svg>
