<?xml version="1.0" encoding="UTF-8" standalone="no"?>
<!-- Created with Inkscape (http://www.inkscape.org/) -->

<svg
   width="210mm"
   height="297mm"
   viewBox="0 0 210 297"
   version="1.1"
   id="svg8"
   inkscape:version="1.2.2 (b0a8486541, 2022-12-01)"
   sodipodi:docname="arb_file_writing.svg"
   xml:space="preserve"
   xmlns:inkscape="http://www.inkscape.org/namespaces/inkscape"
   xmlns:sodipodi="http://sodipodi.sourceforge.net/DTD/sodipodi-0.dtd"
   xmlns="http://www.w3.org/2000/svg"
   xmlns:svg="http://www.w3.org/2000/svg"
   xmlns:rdf="http://www.w3.org/1999/02/22-rdf-syntax-ns#"
   xmlns:cc="http://creativecommons.org/ns#"
   xmlns:dc="http://purl.org/dc/elements/1.1/"><defs
     id="defs2" /><sodipodi:namedview
     id="base"
     pagecolor="#ffffff"
     bordercolor="#666666"
     borderopacity="1.0"
     inkscape:pageopacity="0.0"
     inkscape:pageshadow="2"
     inkscape:zoom="0.5"
     inkscape:cx="-195"
     inkscape:cy="823"
     inkscape:document-units="mm"
     inkscape:current-layer="layer1"
     showgrid="false"
     inkscape:window-width="1920"
     inkscape:window-height="1032"
     inkscape:window-x="0"
     inkscape:window-y="25"
     inkscape:window-maximized="1"
     inkscape:showpageshadow="2"
     inkscape:pagecheckerboard="0"
     inkscape:deskcolor="#d1d1d1" /><metadata
     id="metadata5"><rdf:RDF><cc:Work
         rdf:about=""><dc:format>image/svg+xml</dc:format><dc:type
           rdf:resource="http://purl.org/dc/dcmitype/StillImage" /><dc:title /></cc:Work></rdf:RDF></metadata><g
     inkscape:label="Layer 1"
     inkscape:groupmode="layer"
     id="layer1"><path
       style="fill:#ff0000;stroke-width:0.264583"
       d="m -213.91202,136.7582 c -0.24201,-0.24201 -0.3175,-5.71293 -0.3175,-23.00944 0,-25.943755 -0.31945,-23.103828 2.63364,-23.412488 l 1.5997,-0.167201 0.004,-3.335747 c 0.002,-1.83466 0.10387,-3.493184 0.22587,-3.685609 0.85313,-1.345541 10.0649,-1.060567 15.64508,0.483994 4.01444,1.111173 9.23654,3.435265 12.7,5.652124 1.40508,0.899353 1.47799,0.916379 2.11666,0.494292 7.47541,-4.940341 15.56593,-7.481611 23.76549,-7.46486 3.30807,0.0068 5.01678,0.272113 5.37333,0.83445 0.122,0.192425 0.22365,1.850949 0.22587,3.685609 l 0.004,3.335747 1.59969,0.167201 c 2.95315,0.308665 2.63364,-2.534187 2.63364,23.433008 0,20.08467 -0.0469,22.75141 -0.40566,23.04913 -0.32956,0.27351 -1.08651,0.25169 -4.03489,-0.11629 -8.89921,-1.11068 -18.00553,-1.11293 -26.49511,-0.007 -3.01526,0.39296 -3.56155,0.39358 -6.61458,0.008 -8.64367,-1.09289 -18.87935,-1.10293 -26.34663,-0.0259 -3.26839,0.47143 -3.91015,0.48347 -4.31271,0.0809 z m 6.69396,-2.9094 c 3.11476,-0.35894 16.35912,-0.46943 19.71146,-0.16444 l 1.98438,0.18054 -2.38125,-1.16295 c -1.30969,-0.63962 -3.51235,-1.52361 -4.8948,-1.96443 -4.63819,-1.47896 -6.07452,-1.6938 -11.59786,-1.73475 -4.10457,-0.0304 -5.16264,-0.1123 -5.35376,-0.41427 -0.135,-0.2133 -0.23995,-8.0848 -0.24224,-18.16957 -0.003,-14.057982 -0.0735,-17.792467 -0.33478,-17.789615 -0.1819,0.0021 -0.59862,0.07541 -0.92604,0.163153 l -0.59532,0.159535 v 20.768377 20.76838 l 0.8599,-0.15228 c 0.47294,-0.0838 2.16958,-0.30322 3.77031,-0.48768 z m 59.13437,-20.15786 V 92.952003 l -0.59531,-0.159535 c -0.32742,-0.08775 -0.74414,-0.161166 -0.92604,-0.163153 -0.2613,-0.0029 -0.33158,3.731633 -0.33478,17.789615 -0.002,10.08477 -0.10724,17.95627 -0.24225,18.16957 -0.19111,0.30197 -1.24918,0.38384 -5.35376,0.41427 -5.52333,0.041 -6.95967,0.25579 -11.59786,1.73475 -1.38245,0.44082 -3.5851,1.32631 -4.89479,1.96777 l -2.38124,1.16629 1.85207,-0.18387 c 3.28869,-0.32651 17.75054,-0.12655 20.76979,0.28718 1.52797,0.20938 2.98649,0.39741 3.24115,0.41783 0.43735,0.0351 0.46302,-1.11266 0.46302,-20.70178 z m -33.07291,-0.80581 V 92.398712 l -1.91823,-1.194779 c -2.49922,-1.556655 -6.92808,-3.655631 -9.58076,-4.540631 -4.08446,-1.362676 -11.2336,-2.335854 -13.72546,-1.868379 l -0.9693,0.181842 v 20.795495 20.79549 l 1.55478,-0.1625 c 3.3295,-0.348 9.21939,0.49042 13.79105,1.96316 2.45672,0.79141 8.07704,3.37043 9.6573,4.43149 0.43656,0.29312 0.88304,0.54166 0.99219,0.55229 0.10914,0.0106 0.19843,-9.19954 0.19843,-20.46706 z m 4.24711,19.55199 c 3.74977,-2.27786 9.17064,-4.40965 13.39556,-5.26787 2.78396,-0.56551 7.34125,-0.92901 9.35639,-0.74628 l 1.57593,0.1429 V 105.77554 84.98521 l -1.23153,-0.18468 c -2.77978,-0.416854 -9.39506,0.510862 -13.58513,1.905157 -2.55612,0.850576 -6.9057,2.923314 -9.41023,4.484321 l -1.96685,1.225883 v 20.477829 c 0,11.2628 0.0737,20.47782 0.16383,20.47782 0.0901,0 0.85602,-0.42049 1.70203,-0.93442 z"
       id="path21"
       inkscape:connector-curvature="0"
       inkscape:export-xdpi="111.16"
       inkscape:export-ydpi="111.16"
       inkscape:export-filename="../arb_file_reading.png" /><rect
       style="fill:#ffffff;stroke-width:4.22995"
       id="rect355"
       width="17.453318"
       height="13.147133"
       x="-188.13478"
       y="103.97704" /><path
       style="fill:#ff0000;stroke-width:0.0641276"
       d="m -181.53256,121.63596 c -2.20254,-0.25327 -4.51022,-1.0816 -6.27096,-2.25092 -2.3971,-1.59195 -5.4149,-4.55243 -7.6472,-7.50196 -0.68062,-0.89929 -0.77992,-1.10617 -0.77992,-1.62479 0,-0.51861 0.0993,-0.7255 0.77992,-1.62479 2.24852,-2.97096 5.21125,-5.87392 7.65746,-7.50299 2.69357,-1.793776 6.21319,-2.625296 9.53949,-2.253716 3.87288,0.43265 6.7205,1.993456 10.46218,5.734416 1.69941,1.6991 3.74212,4.11748 4.16799,4.93451 0.14919,0.28636 0.19085,0.75687 0.10412,1.17751 -0.11345,0.55011 -2.26409,3.16754 -4.17882,5.08576 -2.28669,2.29085 -3.91058,3.54496 -5.77267,4.45809 -2.43207,1.19264 -5.32394,1.68368 -8.06159,1.36888 z m 2.32384,-5.67172 c 1.96802,-0.23737 3.64033,-1.41602 4.51065,-3.17912 1.10571,-2.23996 0.62469,-4.94297 -1.1864,-6.66674 -0.95996,-0.91368 -2.05208,-1.42022 -3.37612,-1.56592 -3.59967,-0.3961 -6.69302,2.69725 -6.29691,6.29691 0.0822,0.74708 0.24642,1.31816 0.55844,1.94197 0.86805,1.73548 2.53408,2.9316 4.40991,3.1661 0.63751,0.0797 0.77063,0.0803 1.38043,0.007 z m -1.44065,-2.53824 c -1.3949,-0.33737 -2.47091,-1.71684 -2.47091,-3.16771 0,-1.7646 1.50401,-3.26861 3.2686,-3.26861 1.46719,0 2.83575,1.07926 3.17071,2.50046 0.56159,2.38277 -1.58545,4.51221 -3.9684,3.93586 z"
       id="path301" /><path
       style="fill:#ff0000;fill-opacity:1;stroke-width:0.264583"
       d="m 9.8182109,221.75393 c -1.15302,-0.46737 -1.20766,-0.76761 -1.45569,-7.99878 -0.33383,-9.7327 -0.3169,-109.89789 0.0194,-114.913011 0.37929,-5.65584 1.11888,-8.18614 2.4701201,-8.45085 0.30956,-0.0606 2.46784,-0.2676 4.79617,-0.45991 l 4.23334,-0.34965 0.16445,-9.12813 c 0.17067,-9.47328 0.26706,-10.56367 0.9904,-11.20367 2.84886,-2.52066 19.64841,-2.59604 34.43161,-0.15452 13.48547,2.22721 29.41486,8.45661 43.939847,17.18327 2.691212,1.61689 5.128222,2.90617 5.493282,2.90617 0.36088,0 2.03644,-0.87413 3.72348,-1.94251 16.65301,-10.54617 33.47638,-16.7534 51.75068,-19.09418 7.12773,-0.91299 21.01395,-0.91662 25.26178,-0.007 2.27396,0.48716 3.083,0.93557 3.50201,1.94098 0.19024,0.4565 0.35288,4.09935 0.45121,10.10648 l 0.15375,9.39271 4.36562,0.34985 c 2.4011,0.19241 4.62779,0.45514 4.94822,0.58384 2.58342,1.03762 2.83119,8.0991 2.58985,73.811101 -0.0938,25.53891 -0.27272,48.61641 -0.3976,51.28333 -0.29181,6.23173 -0.23665,6.13125 -3.36565,6.13125 -1.26412,0 -5.99411,-0.41331 -10.51109,-0.91848 -16.67905,-1.86534 -30.7037,-2.49959 -44.69306,-2.0212 -11.45981,0.39188 -17.61317,0.89191 -31.25296,2.53963 -4.99361,0.60324 -8.74087,0.49424 -17.755049,-0.51645 -15.87999,-1.78051 -31.0344,-2.44237 -45.59282,-1.99124 -11.82666,0.36647 -16.94063,0.79303 -30.05005,2.5065 -5.21545,0.68169 -7.29261,0.78643 -8.2112601,0.41407 z M 21.204471,213.9455 c 2.61938,-0.35835 6.13172,-0.77474 7.80521,-0.92531 5.43095,-0.48866 18.34146,-0.80057 32.80834,-0.79262 12.66255,0.007 17.2193,0.12401 24.87083,0.63893 l 2.24896,0.15135 -4.18117,-2.09963 c -8.28186,-4.15886 -16.76596,-7.29286 -25.84904,-9.54855 -6.17712,-1.53402 -12.49648,-2.1065 -23.41563,-2.12125 -6.73328,-0.009 -13.12364,-0.34669 -14.17968,-0.74908 -0.66874,-0.25482 -0.6906,-0.33983 -0.87234,-3.39262 -0.10254,-1.72218 -0.30053,-23.4314 -0.43998,-48.2427 -0.22831,-40.61917 -0.38968,-49.968851 -0.87076,-50.449921 -0.0826,-0.0826 -1.13779,0.0739 -2.34479,0.34781 l -2.19453,0.49806 -0.0667,58.835691 -0.0667,58.8357 0.99277,-0.16715 c 0.54603,-0.0919 3.1359,-0.46035 5.75527,-0.81871 z m 173.234109,-0.27419 c 0.47635,-1.6324 0.7373,-29.93673 0.66833,-72.49006 l -0.0712,-43.915071 -2.06185,-0.51037 c -1.45824,-0.36097 -2.14433,-0.42791 -2.34359,-0.22865 -0.62572,0.62572 -0.7756,8.193751 -1.02574,51.792071 -0.14359,25.02958 -0.3356,46.49956 -0.42666,47.71105 -0.15524,2.06512 -0.20884,2.21921 -0.85804,2.46658 -1.05955,0.40372 -7.43675,0.74271 -14.09071,0.749 -7.52751,0.007 -14.56789,0.41844 -18.41932,1.07612 -8.8964,1.51919 -20.91834,5.62213 -30.62409,10.45162 l -4.49792,2.23813 2.24896,-0.15149 c 7.71792,-0.51987 11.36038,-0.62742 21.43125,-0.63279 20.29837,-0.0108 35.39799,0.58031 43.52396,1.70388 5.76164,0.79666 6.24384,0.77751 6.5466,-0.26002 z m -93.34946,-3.63802 c 0.0852,-0.90951 0.18396,-8.37364 0.2195,-16.58697 l 0.0646,-14.93333 -2.381254,-0.34276 c -6.448995,-0.92829 -13.403565,-3.84867 -18.753155,-7.8749 -6.37812,-4.80031 -15.78894,-14.5121 -19.91757,-20.55456 -1.51934,-2.22364 -1.77829,-3.77058 -0.91456,-5.46362 1.43498,-2.81282 9.30015,-11.84104 14.27607,-16.38717 9.81489,-8.96711 15.53518,-11.8778 26.962859,-13.71968 l 0.8599,-0.1386 -0.006,-9.18227 -0.006,-9.182291 -4.293229,-2.62936 c -7.27434,-4.45512 -17.9425,-9.69988 -25.41945,-12.4969 -7.37139,-2.75752 -16.69424,-4.82119 -27.42483,-6.07064 -4.8196,-0.56118 -12.69724,-0.63308 -15.1474,-0.13824 l -1.78594,0.36069 v 58.876051 58.87606 l 1.78594,-0.17102 c 0.98227,-0.0941 3.45432,-0.24585 5.49346,-0.33732 8.99397,-0.40342 23.22921,1.75019 34.65706,5.24318 7.22694,2.20896 22.47948,9.10143 28.83958,13.03232 1.309691,0.80946 2.461069,1.47247 2.558629,1.47336 0.0976,7.9e-4 0.24708,-0.74253 0.33227,-1.65203 z m 11.41184,-0.36396 c 9.96641,-5.87213 20.5863,-10.4484 31.57066,-13.60427 9.90096,-2.84461 20.53932,-4.13741 31.98084,-3.8864 l 6.41673,0.14078 -0.0667,-58.7691 -0.0667,-58.769101 -1.98438,-0.36624 c -2.7557,-0.50859 -10.60637,-0.4707 -15.21354,0.0734 -11.37414,1.34335 -20.94645,3.54688 -28.67661,6.6013 -9.08567,3.59003 -18.40527,8.3701 -26.84507,13.76897 l -1.49603,0.957 v 9.071301 9.0713 l 3.04763,0.45557 c 9.91864,1.48268 17.38928,5.61568 26.81566,14.83529 5.34464,5.2274 11.57163,12.45574 12.82705,14.88974 0.24732,0.47951 0.43675,1.46581 0.43675,2.27408 0,1.20729 -0.15745,1.67093 -1.02126,3.00741 -2.78394,4.3073 -13.072,15.28203 -18.02874,19.23206 -6.43514,5.12816 -13.01778,8.2328 -19.71146,9.29673 -1.45521,0.2313 -3.04745,0.48365 -3.53831,0.56079 l -0.89248,0.14025 0.18342,16.05534 c 0.10088,8.83044 0.24263,16.26369 0.31499,16.51836 0.0724,0.25466 0.21971,0.46302 0.32742,0.46302 0.10771,0 1.7368,-0.90792 3.62019,-2.0176 z m -3.20168,-47.62124 c 5.40232,-1.39365 10.23276,-6.23232 11.63058,-11.65039 0.53013,-2.05485 0.54314,-6.12247 0.0259,-8.10815 -1.12286,-4.31097 -4.73397,-8.74893 -8.60235,-10.57208 -2.6734,-1.25996 -4.41984,-1.64475 -7.40834,-1.63227 -4.3988,0.0184 -8.074319,1.56759 -11.272959,4.7515 -6.41879,6.38922 -6.39449,16.55432 0.0549,22.98536 4.22122,4.20917 9.784759,5.71903 15.572209,4.22603 z m -7.03116,-7.0673 c -3.405543,-1.27171 -5.853699,-4.42916 -6.208449,-8.00721 -0.37458,-3.77795 2.27297,-7.87263 5.994959,-9.27175 0.67932,-0.25537 2.00886,-0.45016 3.16769,-0.46411 1.74781,-0.021 2.21614,0.0838 3.75306,0.84047 2.16582,1.06623 3.92657,2.94502 4.7124,5.02831 0.76122,2.01805 0.63332,5.12189 -0.29113,7.06481 -0.80208,1.68577 -2.65569,3.54698 -4.34672,4.36458 -1.61243,0.7796 -5.247,1.01803 -6.78181,0.4449 z"
       id="path513"
       inkscape:export-filename="../arb_file_reading.png"
       inkscape:export-xdpi="39.360001"
       inkscape:export-ydpi="39.360001" /></g></svg>
