<?xml version="1.0" encoding="UTF-8" standalone="no"?>
<!-- Created with Inkscape (http://www.inkscape.org/) -->

<svg
   xmlns:dc="http://purl.org/dc/elements/1.1/"
   xmlns:cc="http://creativecommons.org/ns#"
   xmlns:rdf="http://www.w3.org/1999/02/22-rdf-syntax-ns#"
   xmlns:svg="http://www.w3.org/2000/svg"
   xmlns="http://www.w3.org/2000/svg"
   xmlns:sodipodi="http://sodipodi.sourceforge.net/DTD/sodipodi-0.dtd"
   xmlns:inkscape="http://www.inkscape.org/namespaces/inkscape"
   width="210mm"
   height="297mm"
   viewBox="0 0 210 297"
   version="1.1"
   id="svg8"
   inkscape:version="0.92.5 (2060ec1f9f, 2020-04-08)"
   sodipodi:docname="arb_file_reading.svg">
  <defs
     id="defs2" />
  <sodipodi:namedview
     id="base"
     pagecolor="#ffffff"
     bordercolor="#666666"
     borderopacity="1.0"
     inkscape:pageopacity="0.0"
     inkscape:pageshadow="2"
     inkscape:zoom="0.49497475"
     inkscape:cx="-196.29153"
     inkscape:cy="834.06332"
     inkscape:document-units="mm"
     inkscape:current-layer="layer1"
     showgrid="false"
     inkscape:window-width="1366"
     inkscape:window-height="719"
     inkscape:window-x="0"
     inkscape:window-y="25"
     inkscape:window-maximized="1" />
  <metadata
     id="metadata5">
    <rdf:RDF>
      <cc:Work
         rdf:about="">
        <dc:format>image/svg+xml</dc:format>
        <dc:type
           rdf:resource="http://purl.org/dc/dcmitype/StillImage" />
        <dc:title></dc:title>
      </cc:Work>
    </rdf:RDF>
  </metadata>
  <g
     inkscape:label="Layer 1"
     inkscape:groupmode="layer"
     id="layer1">
    <path
       style="fill:#ff0000;stroke-width:0.26458335"
       d="m 60.400098,86.731533 c -0.242009,-0.24201 -0.3175,-5.712929 -0.3175,-23.009441 0,-25.943757 -0.319457,-23.10383 2.633637,-23.41249 l 1.599697,-0.167201 0.004,-3.335747 c 0.0021,-1.83466 0.103875,-3.493184 0.225877,-3.685609 0.853126,-1.345541 10.064894,-1.060567 15.645073,0.483994 4.014441,1.111173 9.236541,3.435265 12.700001,5.652124 1.40508,0.899353 1.47799,0.916379 2.11666,0.494292 7.475417,-4.940341 15.565937,-7.481611 23.765497,-7.46486 3.30807,0.0068 5.01678,0.272113 5.37333,0.83445 0.122,0.192425 0.22365,1.850949 0.22587,3.685609 l 0.004,3.335747 1.59969,0.167201 c 2.95315,0.308665 2.63364,-2.534187 2.63364,23.433011 0,20.08467 -0.0469,22.75141 -0.40566,23.04913 -0.32956,0.27351 -1.08651,0.25169 -4.03489,-0.11629 -8.89921,-1.11068 -18.00553,-1.11293 -26.495117,-0.007 -3.01526,0.39296 -3.56155,0.39358 -6.61458,0.008 -8.643665,-1.09289 -18.879347,-1.10293 -26.346624,-0.0259 -3.268395,0.47143 -3.91015,0.48347 -4.312709,0.0809 z m 6.693959,-2.9094 c 3.114762,-0.35894 16.359116,-0.46943 19.711459,-0.16444 l 1.984377,0.18054 -2.381252,-1.16295 C 85.098953,82.035663 82.896297,81.151665 81.513849,80.710851 76.875658,79.231888 75.439322,79.017047 69.915986,78.9761 65.811412,78.94567 64.753341,78.863797 64.562225,78.561834 64.427224,78.348532 64.322279,70.477032 64.319983,60.392263 c -0.0032,-14.057985 -0.07348,-17.79247 -0.33478,-17.789618 -0.181901,0.0021 -0.59862,0.07541 -0.926042,0.163153 l -0.595313,0.159535 v 20.76838 20.76838 l 0.859896,-0.15228 c 0.472943,-0.0838 2.169584,-0.30322 3.770313,-0.48768 z M 126.22843,63.664267 V 42.925333 l -0.59531,-0.159535 c -0.32742,-0.08775 -0.74414,-0.161166 -0.92604,-0.163153 -0.2613,-0.0029 -0.33158,3.731633 -0.33478,17.789618 -0.002,10.084769 -0.10724,17.956269 -0.24225,18.169571 -0.19111,0.301963 -1.24918,0.383836 -5.35376,0.414266 -5.52333,0.04095 -6.95967,0.255788 -11.59786,1.734751 -1.38245,0.440814 -3.5851,1.326312 -4.89479,1.967772 l -2.381247,1.16629 1.852077,-0.18387 c 3.28869,-0.32651 17.75054,-0.12655 20.76979,0.28718 1.52797,0.20938 2.98649,0.39741 3.24115,0.41783 0.43735,0.0351 0.46302,-1.11266 0.46302,-20.701786 z M 93.155513,62.858455 V 42.372042 l -1.91823,-1.194779 c -2.49922,-1.556655 -6.928077,-3.655631 -9.580757,-4.540631 -4.084458,-1.362676 -11.233603,-2.335854 -13.72546,-1.868379 l -0.969301,0.181842 V 55.74559 76.541084 l 1.554779,-0.162507 c 3.329506,-0.348002 9.219388,0.490423 13.791055,1.96316 2.45672,0.791417 8.077034,3.370436 9.657294,4.431496 0.43656,0.29312 0.88304,0.54166 0.99219,0.55229 0.10914,0.0106 0.19843,-9.19954 0.19843,-20.467068 z m 4.24711,19.551998 c 3.749777,-2.277865 9.170647,-4.409652 13.395567,-5.267871 2.78396,-0.565515 7.34125,-0.929013 9.35639,-0.746286 l 1.57593,0.142901 V 55.748868 34.95854 l -1.23153,-0.18468 c -2.77978,-0.416854 -9.39506,0.510862 -13.58513,1.905157 -2.55612,0.850576 -6.9057,2.923314 -9.410237,4.484321 l -1.96685,1.225883 v 20.477825 c 0,11.262802 0.0737,20.477827 0.16383,20.477827 0.0901,0 0.85602,-0.42049 1.70203,-0.93442 z"
       id="path21"
       inkscape:connector-curvature="0"
       inkscape:export-xdpi="74.215462"
       inkscape:export-ydpi="74.215462" />
  </g>
</svg>
