<?xml version="1.0" encoding="UTF-8" standalone="no"?>
<!-- Created with Inkscape (http://www.inkscape.org/) -->

<svg
   xmlns:dc="http://purl.org/dc/elements/1.1/"
   xmlns:cc="http://creativecommons.org/ns#"
   xmlns:rdf="http://www.w3.org/1999/02/22-rdf-syntax-ns#"
   xmlns:svg="http://www.w3.org/2000/svg"
   xmlns="http://www.w3.org/2000/svg"
   xmlns:sodipodi="http://sodipodi.sourceforge.net/DTD/sodipodi-0.dtd"
   xmlns:inkscape="http://www.inkscape.org/namespaces/inkscape"
   width="210mm"
   height="297mm"
   viewBox="0 0 210 297"
   version="1.1"
   id="svg8"
   inkscape:version="0.92.5 (2060ec1f9f, 2020-04-08)"
   sodipodi:docname="ptrav.svg">
  <defs
     id="defs2" />
  <sodipodi:namedview
     id="base"
     pagecolor="#ffffff"
     bordercolor="#666666"
     borderopacity="1.0"
     inkscape:pageopacity="0.0"
     inkscape:pageshadow="2"
     inkscape:zoom="0.49497475"
     inkscape:cx="54.04573"
     inkscape:cy="620.60003"
     inkscape:document-units="mm"
     inkscape:current-layer="layer1"
     showgrid="false"
     showguides="false"
     inkscape:window-width="1366"
     inkscape:window-height="719"
     inkscape:window-x="0"
     inkscape:window-y="25"
     inkscape:window-maximized="1" />
  <metadata
     id="metadata5">
    <rdf:RDF>
      <cc:Work
         rdf:about="">
        <dc:format>image/svg+xml</dc:format>
        <dc:type
           rdf:resource="http://purl.org/dc/dcmitype/StillImage" />
        <dc:title></dc:title>
      </cc:Work>
    </rdf:RDF>
  </metadata>
  <g
     inkscape:label="Layer 1"
     inkscape:groupmode="layer"
     id="layer1">
    <path
       style="fill:#ff0000;stroke-width:0.42342091"
       d="M 56.536518,92.266839 C 56.091036,91.710897 55.372063,81.541237 54.902028,69.147472 l -0.27572,-7.270212 7.083096,-0.282063 c 3.895705,-0.155183 10.220664,-0.28208 14.055463,-0.28208 h 6.972363 l 2.402824,-1.701917 2.402825,-1.701934 h 9.466546 c 5.206605,0 10.083185,0.124469 10.836855,0.276741 l 1.37033,0.276741 -0.27195,6.211846 c -0.14958,3.416506 -0.46943,10.71129 -0.7108,16.210628 -0.24137,5.499338 -0.61306,10.429593 -0.82599,10.956128 l -0.38712,0.95734 H 81.991728 c -19.515006,0 -25.122915,-0.11723 -25.45521,-0.531851 z M 68.201523,75.247312 c 1.409782,-4.270929 2.563239,-7.921498 2.563239,-8.112397 0,-0.190884 -0.499418,-0.286486 -1.109818,-0.212448 -1.04461,0.12672 -1.25454,0.584646 -3.572744,7.793283 -1.354608,4.212267 -2.466934,7.802257 -2.471834,7.977767 -0.0049,0.175509 0.449373,0.319114 1.009501,0.319114 0.946139,0 1.200321,-0.551086 3.581656,-7.765319 z m 6.006373,7.061157 c 0.994126,-0.908457 0.978947,-1.951915 -0.04196,-2.884831 -1.704035,-1.557171 -4.058281,0.598283 -2.789344,2.553816 0.783451,1.207358 1.748803,1.320216 2.831309,0.331015 z m 5.586249,0.03554 c 0.900665,-0.90947 0.831855,-2.022816 -0.182298,-2.949558 -1.242091,-1.13504 -2.947887,-0.289926 -2.947887,1.460475 0,1.905312 1.847543,2.784212 3.130185,1.489051 z m 5.471316,-6.883684 c 1.360475,-4.153764 2.567612,-7.806888 2.682525,-8.118043 0.149352,-0.404425 -0.128378,-0.525757 -0.973923,-0.425491 -1.138351,0.135082 -1.282004,0.440447 -3.817948,8.118042 L 80.521024,83.0126 h 1.135424 c 1.097434,0 1.218187,-0.252683 3.609013,-7.552275 z m 6.32985,6.731798 C 92.847798,80.794638 91.48082,78.408291 89.74624,78.9642 c -1.395863,0.447346 -1.884552,1.794063 -1.093436,3.013223 0.808549,1.246049 1.943924,1.328883 2.942507,0.2147 z m 5.36663,0.116267 c 0.994124,-0.908457 0.978945,-1.951915 -0.04196,-2.884832 -1.704033,-1.55717 -4.05828,0.598284 -2.789343,2.553817 0.783451,1.207357 1.7488,1.320215 2.831311,0.331015 z M 56.927576,54.951105 c 0.09445,-3.086215 0.327604,-4.846539 0.690333,-5.212144 0.667369,-0.672659 15.90974,-1.063077 18.182035,-0.465711 1.131616,0.297485 1.527672,0.671034 1.788321,1.686721 l 0.334795,1.304616 14.013098,0.313342 c 7.707204,0.172341 14.155312,0.400629 14.329122,0.507311 0.17382,0.106618 0.31603,0.852801 0.31603,1.658033 V 56.20735 H 96.747685 86.91406 L 84.560308,57.909266 82.206554,59.6112 H 69.495753 56.784952 Z"
       id="path3749"
       inkscape:connector-curvature="0"
       inkscape:export-xdpi="93.322754"
       inkscape:export-ydpi="93.322754"
       inkscape:export-filename="/home/alexander/Desktop/AVLEONOV/PycharmProjects/vulristics/reports/icons/ptrav.png" />
  </g>
</svg>
