<?xml version="1.0" encoding="UTF-8" standalone="no"?>
<!-- Created with Inkscape (http://www.inkscape.org/) -->

<svg
   width="300"
   height="277"
   viewBox="0 0 79.374998 73.289591"
   version="1.1"
   id="svg8"
   inkscape:version="1.2.2 (b0a8486541, 2022-12-01)"
   sodipodi:docname="ssrf.svg"
   xml:space="preserve"
   inkscape:export-filename="ssrf.png"
   inkscape:export-xdpi="96"
   inkscape:export-ydpi="96"
   xmlns:inkscape="http://www.inkscape.org/namespaces/inkscape"
   xmlns:sodipodi="http://sodipodi.sourceforge.net/DTD/sodipodi-0.dtd"
   xmlns="http://www.w3.org/2000/svg"
   xmlns:svg="http://www.w3.org/2000/svg"
   xmlns:rdf="http://www.w3.org/1999/02/22-rdf-syntax-ns#"
   xmlns:cc="http://creativecommons.org/ns#"
   xmlns:dc="http://purl.org/dc/elements/1.1/"><defs
     id="defs2" /><sodipodi:namedview
     id="base"
     pagecolor="#ffffff"
     bordercolor="#666666"
     borderopacity="1.0"
     inkscape:pageopacity="0.0"
     inkscape:pageshadow="2"
     inkscape:zoom="1.4142136"
     inkscape:cx="229.1026"
     inkscape:cy="100.05561"
     inkscape:document-units="mm"
     inkscape:current-layer="layer1"
     showgrid="false"
     showguides="false"
     inkscape:window-width="1920"
     inkscape:window-height="1032"
     inkscape:window-x="0"
     inkscape:window-y="25"
     inkscape:window-maximized="1"
     inkscape:showpageshadow="2"
     inkscape:pagecheckerboard="0"
     inkscape:deskcolor="#d1d1d1" /><metadata
     id="metadata5"><rdf:RDF><cc:Work
         rdf:about=""><dc:format>image/svg+xml</dc:format><dc:type
           rdf:resource="http://purl.org/dc/dcmitype/StillImage" /></cc:Work></rdf:RDF></metadata><g
     inkscape:label="Layer 1"
     inkscape:groupmode="layer"
     id="layer1"><g
       id="g882"
       transform="translate(-0.39109311,0.15111331)"><path
         style="fill:#ff0000;fill-opacity:1;stroke-width:0.343432"
         d="m 25.267563,72.566645 c -0.33556,-0.874467 0.02337,-3.055093 0.547825,-3.328688 0.283329,-0.14779 1.906046,-0.920612 3.606032,-1.717393 7.494033,-3.512432 10.14434,-9.868449 6.305721,-15.122485 -0.222741,-0.304877 -0.307981,-0.807142 -0.189393,-1.116143 0.193673,-0.504707 1.387477,-0.56183 11.742083,-0.56183 10.344666,0 11.548554,0.0575 11.741632,0.560635 0.118377,0.308354 0.0078,0.887889 -0.245673,1.28787 -1.769808,2.793026 -2.100564,6.10375 -0.861814,8.62614 1.436923,2.925905 5.992263,6.357136 10.24612,7.717708 l 1.304705,0.417305 -0.102671,1.770823 -0.102683,1.770818 -21.903533,0.0884 c -18.532932,0.07476 -21.931963,0.01427 -22.088316,-0.39318 z m 4.681081,-24.227981 c -0.196479,-0.367127 -0.355511,-2.814168 -0.355511,-5.470361 0,-3.911259 0.100468,-4.906569 0.539672,-5.345762 0.479835,-0.479837 3.080924,-0.539673 23.456355,-0.539673 17.366156,0 23.016473,0.09981 23.328772,0.412119 0.533809,0.533789 0.533809,3.106556 0,3.640362 -0.226658,0.226658 -0.89739,0.412117 -1.490502,0.412117 -1.536878,0 -6.02771,1.200594 -7.719794,2.063835 -1.757228,0.896452 -4.335774,3.22831 -5.008596,4.529407 l -0.49759,0.962237 H 46.252811 c -15.416471,0 -15.960507,-0.0222 -16.304167,-0.664281 z M 19.535162,43.728923 c -5.3467,-2.886728 -6.435093,-3.601127 -6.353487,-4.17033 0.09423,-0.657622 0.396306,-0.690825 7.094907,-0.77996 4.870669,-0.06479 7.140181,0.02623 7.469616,0.299621 0.343065,0.284716 0.473215,1.318007 0.473215,3.7569 0,1.850295 -0.09386,3.608629 -0.20846,3.907405 -0.400122,1.04269 -2.048124,0.456726 -8.475791,-3.013636 z"
         id="path303"
         sodipodi:nodetypes="csssssccssccccccssssssssscsssccsscs" /><path
         style="fill:#ff0000;fill-opacity:1;stroke-width:0.136047"
         d="m 5.4282659,36.803956 c 0.177285,-0.06668 1.0306415,-0.477057 1.8963174,-0.911987 0.8656811,-0.434925 2.7938107,-1.394999 4.2847407,-2.133499 1.490929,-0.738502 3.078374,-1.531245 3.527656,-1.761655 0.449287,-0.230409 2.036491,-1.024338 3.527123,-1.764283 4.59578,-2.281346 8.17063,-4.161334 12.975865,-6.823922 2.538069,-1.406345 5.345103,-2.957275 6.237855,-3.446502 0.892755,-0.489232 1.637915,-0.911412 1.655917,-0.93819 0.04523,-0.06762 -2.382347,-4.908742 -2.507375,-5.000101 -0.05565,-0.04069 -0.557359,0.139863 -1.114868,0.401218 -0.557538,0.261306 -3.073873,1.40059 -5.591897,2.531665 -8.114274,3.644859 -8.841862,3.995326 -22.4587696,10.818262 -4.1135696,2.061163 -5.7506038,2.943429 -6.0869734,3.280513 -2.24760175,2.252399 -0.3987339,6.177861 2.7858347,5.914815 0.3004252,-0.02482 0.6912757,-0.09969 0.8685684,-0.166372 z M 47.110023,25.718934 c 0.205977,-0.113099 1.140696,-0.583873 2.077149,-1.046165 3.734765,-1.843711 4.119991,-2.121065 4.157102,-2.992935 0.0097,-0.229562 -0.883367,-2.151624 -2.592639,-5.579416 C 46.300463,7.1739737 45.619169,5.8563921 45.114352,5.198154 44.527558,4.4330401 39.399657,0.50655619 38.470695,0.11104758 37.663818,-0.23248009 36.865906,0.24811749 36.697733,1.1789378 c -0.05325,0.2946321 -0.100826,2.0971973 -0.105774,4.0057112 -0.0073,2.8215286 0.03602,3.6155144 0.231837,4.2485027 0.132447,0.4281694 1.151382,2.5942033 2.264298,4.8134313 1.112902,2.219224 2.105056,4.205714 2.204786,4.414436 1.114665,2.332761 3.399136,6.745427 3.618429,6.9893 0.480108,0.53394 1.304375,0.559662 2.198723,0.06861 z"
         id="path317"
         sodipodi:nodetypes="cssscsccscssscccscscsssscscss" /><path
         style="fill:#ff0000;stroke-width:0.318275"
         d="m 55.170221,26.97456 c 1.059004,-3.136805 2.012556,-5.789999 2.119002,-5.89599 0.106443,-0.105987 0.376664,0.670184 0.600473,1.724831 0.223812,1.054645 0.506727,1.917537 0.628699,1.917537 0.121975,0 2.501408,-3.639347 5.287633,-8.087438 2.786225,-4.448092 5.090709,-8.0635268 5.121078,-8.0343024 0.03037,0.029222 -0.579309,2.8321224 -1.35484,6.2286604 -0.77553,3.396538 -1.346025,6.239552 -1.267769,6.31781 0.07827,0.07827 2.2634,-0.997435 4.855876,-2.390429 2.592476,-1.392994 4.755101,-2.500655 4.805832,-2.461471 0.05074,0.03918 -1.34424,2.130357 -3.099936,4.647053 l -3.192175,4.575807 4.850456,0.159138 4.85045,0.159137 -8.514485,3.421468 c -4.682965,1.881807 -8.585826,3.421469 -8.67302,3.421469 -0.0872,0 -0.158537,-0.859346 -0.158537,-1.909658 0,-1.050311 -0.09775,-1.909656 -0.217218,-1.909656 -0.119463,0 -2.049869,0.859345 -4.289777,1.909656 -2.239905,1.050312 -4.118603,1.909658 -4.174882,1.909658 -0.05627,0 0.764137,-2.566478 1.82314,-5.70328 z"
         id="path877"
         sodipodi:nodetypes="ssssssssssscccsssssss" /></g></g></svg>
